<?xml version="1.0" standalone="no"?>
<!DOCTYPE svg PUBLIC "-//W3C//DTD SVG 20010904//EN"
 "http://www.w3.org/TR/2001/REC-SVG-20010904/DTD/svg10.dtd">
<svg version="1.0" xmlns="http://www.w3.org/2000/svg"
 width="1205.000000pt" height="1205.000000pt" viewBox="0 0 1205.000000 1205.000000"
 preserveAspectRatio="xMidYMid meet">
<metadata>
Created by potrace 1.11, written by Peter Selinger 2001-2013
</metadata>
<g transform="translate(0.000000,1205.000000) scale(0.100000,-0.100000)"
fill="#000000" stroke="none">
<path d="M2699 11172 c-9 -1 -185 -341 -413 -795 -220 -436 -535 -1062 -701
-1392 -598 -1188 -1390 -2762 -1430 -2845 l-42 -85 18 -30 c11 -16 19 -37 19
-47 0 -9 3 -18 8 -20 8 -4 54 -94 52 -104 -1 -4 2 -10 7 -13 16 -12 62 -114
56 -125 -3 -6 -2 -8 2 -3 11 9 66 -102 58 -117 -3 -6 -2 -7 2 -3 11 10 67
-101 58 -116 -3 -5 -1 -7 4 -4 13 8 26 -20 16 -35 -3 -6 -2 -8 3 -5 9 5 42
-53 35 -62 -1 -2 1 -7 7 -10 13 -9 124 -231 115 -231 -5 0 -3 -4 3 -8 15 -10
215 -408 217 -432 1 -10 3 -17 6 -14 8 7 111 -200 106 -213 -2 -7 1 -15 7 -19
7 -5 8 -2 3 7 -5 8 -6 12 -2 9 3 -3 125 -243 271 -534 147 -291 271 -535 276
-541 6 -7 11 -24 12 -38 1 -14 5 -24 9 -21 5 3 19 -18 18 -29 0 -1 18 -36 40
-77 64 -122 104 -204 103 -212 -1 -5 3 -8 10 -8 6 0 9 -2 6 -6 -3 -3 5 -24 18
-47 61 -111 94 -182 89 -194 -2 -8 -1 -11 5 -8 8 5 64 -100 57 -108 -1 -2 6
-11 16 -21 9 -10 15 -22 12 -27 -4 -5 -3 -9 2 -9 8 0 39 -62 34 -69 -1 -2 1
-7 6 -10 17 -13 63 -112 57 -123 -4 -6 -3 -8 3 -5 8 5 121 -213 114 -222 -1
-2 2 -7 7 -10 14 -9 81 -149 74 -155 -3 -3 0 -6 7 -6 8 0 11 -6 7 -17 -4 -10
-4 -14 0 -10 10 10 66 -102 58 -116 -4 -7 -3 -9 1 -4 11 10 78 -121 69 -135
-4 -6 -3 -8 4 -4 9 5 29 -32 23 -43 -2 -2 4 -8 13 -13 9 -5 16 -16 16 -24 0
-9 7 -23 16 -31 8 -9 13 -24 11 -35 -3 -11 -1 -16 6 -11 7 4 8 0 4 -11 -4 -10
-3 -15 3 -11 6 3 10 1 10 -4 0 -22 2 -26 16 -34 8 -4 14 -14 14 -20 0 -7 23
-55 50 -107 28 -52 48 -100 46 -107 -3 -7 0 -12 6 -10 7 1 14 -6 16 -17 3 -13
0 -16 -10 -11 -7 5 -10 4 -5 -1 5 -5 13 -9 17 -9 10 0 60 -93 60 -112 0 -6 5
-13 10 -15 6 -2 12 -13 13 -25 0 -12 3 -20 6 -18 2 3 14 -14 25 -38 17 -33 27
-42 48 -42 17 1 24 -4 21 -12 -7 -17 43 -17 51 0 3 6 4 4 3 -7 -2 -22 26 -30
57 -15 20 9 20 9 3 -4 -13 -11 -14 -16 -6 -19 9 -3 7 -7 -5 -11 -11 -5 -15 -3
-10 5 4 7 3 8 -4 4 -7 -4 -12 -2 -12 4 0 6 -5 8 -10 5 -14 -9 10 -32 33 -32 9
0 17 4 17 8 0 12 31 4 41 -12 7 -11 9 -11 9 -1 0 7 5 10 12 6 7 -4 8 -3 4 4
-5 8 1 12 16 12 18 0 20 -2 8 -10 -8 -5 -10 -10 -4 -10 21 0 24 14 9 37 -19
28 -12 30 15 3 24 -24 25 -30 10 -40 -8 -5 -7 -9 5 -13 9 -4 14 -3 11 2 -3 5
1 14 8 20 10 8 16 9 21 1 4 -7 12 -7 25 0 15 8 22 6 30 -7 11 -17 11 -17 6 0
-3 9 -1 17 4 17 6 0 10 -6 10 -12 0 -9 4 -8 10 2 12 18 14 40 2 25 -4 -5 -15
-11 -26 -12 -23 -2 -7 14 19 19 11 1 23 7 27 12 3 5 5 -2 5 -17 -1 -14 -5 -23
-9 -20 -5 2 -8 -1 -8 -6 0 -14 17 -14 25 -1 3 6 14 10 23 10 15 -1 15 -2 -2
-15 -11 -8 -15 -15 -9 -15 6 0 16 7 23 15 6 8 15 14 18 13 4 -1 21 2 39 6 22
5 30 12 26 22 -8 21 5 17 17 -6 8 -16 8 -20 -2 -18 -7 2 -12 -3 -10 -9 1 -7
-2 -13 -8 -13 -5 0 -10 -5 -10 -12 0 -6 11 -1 24 11 15 14 26 19 31 12 4 -8
12 -8 25 -1 21 11 36 -2 24 -22 -5 -7 -3 -8 5 -4 7 5 10 14 7 22 -3 8 -1 14 4
14 6 0 10 -6 11 -12 0 -7 7 2 15 19 8 18 20 33 27 33 8 0 9 -2 1 -8 -6 -4 -14
-17 -18 -29 -6 -18 -3 -22 13 -20 11 0 17 5 15 9 -3 4 1 8 9 8 11 0 13 -7 10
-22 -3 -13 -3 -20 0 -17 15 12 13 55 -2 67 -14 11 -13 11 7 2 12 -6 22 -15 22
-20 0 -6 7 -10 16 -10 9 0 12 -5 8 -13 -5 -8 -3 -8 9 2 15 12 18 10 26 -10 8
-19 10 -20 10 -6 1 11 5 15 13 11 7 -4 8 -3 4 4 -5 8 1 12 16 12 18 0 20 -2 8
-10 -8 -5 -10 -10 -4 -10 21 0 24 14 9 37 -19 28 -12 30 15 3 25 -25 25 -29 3
-47 -10 -8 -11 -11 -3 -7 8 4 22 13 32 21 11 10 18 11 23 4 4 -8 12 -8 25 -1
15 8 22 6 30 -7 11 -17 11 -17 6 0 -3 9 -1 17 4 17 6 0 10 -6 10 -12 0 -9 4
-8 10 2 12 18 14 40 2 25 -4 -5 -15 -11 -26 -12 -23 -2 -7 14 19 19 11 1 23 7
27 12 3 5 5 -2 5 -17 -1 -14 -5 -23 -9 -20 -5 2 -8 -1 -8 -6 0 -14 17 -14 25
-1 3 6 14 10 23 10 15 -1 15 -2 -2 -15 -11 -8 -15 -15 -9 -15 6 0 16 7 23 15
13 15 31 16 41 2 4 -5 11 5 17 22 6 17 17 31 24 31 9 0 10 -3 2 -8 -6 -4 -14
-17 -18 -29 -6 -18 -3 -22 13 -20 11 0 17 5 15 9 -3 4 2 8 11 8 12 0 14 -4 5
-19 -8 -15 -7 -19 5 -17 8 1 21 8 28 16 10 12 9 12 -6 1 -15 -12 -17 -11 -14
10 2 14 -3 30 -12 37 -14 11 -13 11 7 2 12 -6 22 -15 22 -20 0 -6 7 -10 16
-10 9 0 12 -5 8 -12 -5 -9 -2 -8 10 1 12 10 20 11 28 3 7 -7 17 -8 29 -1 13 7
21 5 29 -8 11 -17 11 -17 6 0 -3 9 -1 17 5 17 6 0 8 4 4 9 -3 5 -1 12 4 16 6
3 8 -5 5 -18 -4 -26 11 -29 50 -12 11 5 21 3 26 -5 5 -8 11 -2 18 19 6 17 17
31 24 31 9 0 10 -3 2 -8 -6 -4 -14 -17 -18 -29 -6 -18 -3 -22 13 -20 11 0 17
5 15 9 -3 4 1 8 9 8 11 0 13 -7 10 -22 -3 -13 -3 -20 0 -17 15 12 13 55 -2 67
-14 11 -13 11 6 2 13 -6 23 -15 23 -20 0 -6 7 -10 16 -10 9 0 12 -5 8 -12 -5
-9 -2 -8 10 1 12 10 20 11 28 3 7 -7 17 -8 29 -1 13 7 21 5 29 -8 11 -17 11
-17 6 0 -3 11 0 17 10 17 8 0 13 -4 10 -8 -7 -12 25 -11 49 3 26 14 30 35 8
36 -11 0 -13 2 -5 6 7 3 23 -2 36 -11 21 -13 25 -13 30 -1 5 13 34 13 56 0 13
-8 13 8 0 21 -7 7 -6 11 4 11 8 0 13 -3 11 -7 -2 -3 0 -12 5 -20 13 -21 -8
-42 -30 -30 -9 5 -21 6 -25 2 -3 -4 -6 -2 -5 3 5 25 -1 28 -15 8 -9 -12 -21
-20 -28 -18 -6 3 -23 -5 -37 -16 l-25 -21 25 14 c14 7 35 13 47 12 12 -1 20 3
17 7 -3 5 5 7 18 5 13 -3 23 -5 23 -7 0 -1 10 -3 22 -4 12 -1 20 2 17 6 -3 5
5 7 18 6 13 -2 23 -9 23 -15 0 -6 4 -14 8 -19 5 -4 7 -2 5 6 -2 10 6 15 26 15
16 1 31 7 34 14 5 15 -10 16 -26 0 -19 -19 -37 5 -23 29 11 16 11 16 6 -4 -4
-14 -2 -23 4 -23 6 0 11 5 11 10 0 16 32 11 45 -7 12 -17 61 -30 51 -14 -3 5
10 12 29 15 24 5 33 11 28 21 -8 22 5 18 17 -5 6 -11 7 -19 1 -18 -5 2 -9 -1
-9 -6 0 -5 -6 -13 -14 -17 -8 -5 -9 -9 -2 -9 6 0 17 7 24 15 8 10 17 12 24 6
7 -6 17 -6 26 -1 11 7 20 3 33 -13 l18 -22 -11 23 c-7 15 -7 22 0 22 5 0 10
-6 11 -12 0 -7 7 2 15 20 8 17 20 32 27 32 8 0 9 -2 1 -8 -6 -4 -14 -17 -18
-29 -6 -18 -3 -22 13 -20 11 0 17 5 15 9 -3 4 2 8 10 8 10 0 13 -6 9 -17 -3
-10 -3 -15 1 -11 14 12 13 43 -3 56 -14 11 -13 11 7 2 12 -6 22 -15 22 -20 0
-6 7 -10 16 -10 9 0 12 -5 8 -12 -5 -8 0 -7 11 2 17 14 18 13 12 -5 -6 -17 -5
-18 5 -5 26 30 55 22 49 -13 -1 -5 3 -6 8 -2 6 3 7 13 4 23 -6 15 -5 15 10 3
10 -7 17 -9 17 -3 0 15 30 8 41 -9 7 -11 9 -11 9 -1 0 7 5 10 12 6 6 -4 8 -3
5 3 -4 7 7 13 28 17 24 5 33 11 28 21 -8 22 5 18 17 -5 8 -16 8 -20 -2 -18 -7
2 -12 -3 -10 -9 1 -7 -3 -13 -10 -13 -6 0 -8 -3 -5 -7 4 -3 15 2 26 11 12 11
21 14 26 7 4 -8 12 -8 26 -1 15 9 21 7 25 -5 4 -9 11 -12 18 -7 6 4 21 7 33 6
12 0 20 3 17 7 -3 5 5 7 18 5 13 -3 23 -5 23 -7 0 -1 10 -3 22 -4 12 -1 20 2
17 6 -3 5 5 7 18 6 13 -2 23 -9 23 -15 0 -6 4 -14 8 -19 5 -4 7 -2 5 6 -2 10
6 15 26 15 16 1 31 7 34 14 5 15 -10 16 -26 0 -19 -19 -37 5 -23 29 11 16 11
16 6 -4 -4 -14 -2 -23 4 -23 6 0 11 5 11 10 0 16 32 11 45 -7 13 -17 61 -30
50 -13 -3 5 -1 10 4 10 6 0 11 -6 12 -12 0 -7 7 2 15 20 8 17 20 32 27 32 8 0
9 -2 1 -8 -6 -4 -14 -17 -18 -29 -6 -18 -3 -22 13 -20 11 0 17 5 15 9 -3 4 2
8 11 8 12 0 14 -4 5 -19 -8 -15 -7 -19 5 -17 8 1 21 8 28 16 10 12 9 12 -6 1
-15 -12 -17 -11 -14 10 2 14 -3 30 -12 37 -14 11 -13 11 7 2 12 -6 22 -15 22
-20 0 -6 7 -10 16 -10 9 0 12 -5 8 -12 -5 -9 -2 -8 10 1 12 10 20 11 28 3 7
-7 17 -8 29 -1 13 7 21 5 29 -8 11 -17 11 -17 6 0 -3 9 -1 17 5 17 6 0 8 4 4
9 -3 5 -1 12 4 16 6 3 8 -5 5 -18 -4 -26 11 -29 50 -12 11 5 21 3 26 -5 5 -8
11 -2 18 19 6 17 17 31 24 31 9 0 10 -3 2 -8 -6 -4 -14 -17 -18 -29 -6 -18 -3
-22 13 -20 11 0 17 5 15 9 -3 4 1 8 9 8 11 0 13 -7 10 -23 -3 -12 -3 -19 0
-16 15 12 13 55 -2 67 -14 11 -13 11 7 2 12 -6 22 -15 22 -20 0 -6 7 -10 16
-10 9 0 12 -5 8 -12 -5 -9 -2 -8 10 1 12 10 20 11 28 3 7 -7 17 -8 29 -1 13 7
21 5 29 -8 11 -17 11 -17 6 0 -3 11 0 17 10 17 8 0 13 -4 10 -8 -6 -11 25 -12
39 -2 6 4 27 10 47 14 27 5 36 11 31 21 -8 22 5 18 17 -5 8 -16 8 -20 -2 -18
-7 2 -12 -3 -10 -9 1 -7 -2 -13 -8 -13 -5 0 -10 -5 -10 -12 0 -6 11 -1 24 11
15 14 26 19 31 12 4 -8 12 -8 25 -1 21 11 36 -2 24 -22 -5 -7 -3 -8 5 -4 7 5
10 14 7 22 -3 8 -1 14 4 14 6 0 10 -6 11 -12 0 -7 7 2 15 20 8 17 20 32 27 32
8 0 9 -2 1 -8 -6 -4 -14 -17 -18 -29 -6 -18 -3 -22 13 -20 11 0 17 5 15 9 -3
4 1 8 9 8 11 0 13 -7 10 -22 -3 -13 -3 -20 0 -17 15 12 13 55 -2 67 -14 11
-13 11 7 2 12 -6 22 -15 22 -20 0 -6 7 -10 16 -10 9 0 12 -5 8 -12 -5 -9 -3
-9 9 1 15 12 18 10 26 -10 8 -19 10 -20 10 -6 1 11 5 15 13 11 7 -4 8 -3 4 4
-5 8 1 12 16 12 18 0 20 -2 8 -10 -8 -5 -10 -10 -4 -10 21 0 24 14 9 37 -19
28 -12 30 15 3 25 -25 25 -29 3 -47 -10 -8 -11 -11 -3 -7 8 4 22 13 32 21 11
10 18 11 23 4 4 -8 12 -8 25 -1 15 8 22 6 30 -7 11 -17 11 -17 6 0 -3 9 -1 17
4 17 6 0 10 -6 10 -12 0 -9 4 -8 10 2 12 18 14 40 2 25 -4 -5 -15 -11 -26 -12
-23 -2 -7 14 19 19 11 1 23 7 27 12 3 5 5 -2 5 -17 -1 -14 -5 -23 -9 -20 -5 2
-8 -1 -8 -6 0 -14 17 -14 25 -1 3 6 14 10 23 10 15 -1 15 -2 -2 -15 -11 -8
-15 -15 -9 -15 6 0 16 7 23 15 6 8 15 14 18 13 4 -1 21 2 39 6 22 5 30 12 26
22 -8 21 5 17 17 -6 8 -16 8 -20 -2 -18 -7 2 -12 -3 -10 -9 1 -7 -2 -13 -8
-13 -5 0 -10 -5 -10 -12 0 -6 11 -1 24 11 15 14 26 19 31 12 4 -8 12 -8 25 -1
21 11 36 -2 24 -22 -5 -7 -3 -8 5 -4 7 5 10 14 7 22 -3 8 -1 14 4 14 6 0 10
-6 11 -12 0 -7 7 2 15 20 8 17 20 32 27 32 8 0 9 -2 1 -8 -6 -4 -14 -17 -18
-29 -6 -18 -3 -22 13 -20 11 0 17 5 15 9 -3 4 1 8 9 8 11 0 13 -7 10 -22 -3
-13 -3 -20 0 -17 15 12 13 55 -2 67 -14 11 -13 11 7 2 12 -6 22 -15 22 -20 0
-6 7 -10 16 -10 9 0 12 -5 8 -13 -5 -8 -3 -8 9 2 15 12 18 10 26 -10 8 -19 10
-20 10 -6 1 11 5 15 13 11 7 -4 8 -3 4 4 -5 8 1 12 16 12 18 0 20 -2 8 -10 -8
-5 -10 -10 -4 -10 21 0 24 14 9 37 -19 28 -12 30 15 3 25 -25 25 -29 3 -47
-10 -8 -11 -11 -3 -7 8 4 22 13 32 21 11 10 18 11 23 4 4 -8 12 -8 25 -1 15 8
22 6 30 -7 11 -17 11 -17 6 0 -3 9 -1 17 4 17 6 0 10 -6 10 -12 0 -9 4 -8 10
2 12 18 14 40 2 25 -4 -5 -15 -11 -26 -12 -23 -2 -7 14 19 19 11 1 23 7 27 12
3 5 5 -2 5 -17 -1 -14 -5 -23 -9 -20 -5 2 -8 -1 -8 -6 0 -14 17 -14 25 -1 3 6
14 10 23 10 15 -1 15 -2 -2 -15 -11 -8 -15 -15 -9 -15 6 0 16 7 23 15 13 15
31 16 41 2 4 -5 11 5 17 22 6 17 17 31 24 31 9 0 10 -3 2 -8 -6 -4 -14 -17
-18 -29 -6 -18 -3 -22 13 -20 11 0 17 5 15 9 -3 4 2 8 11 8 12 0 14 -4 5 -19
-8 -15 -7 -19 5 -17 8 1 21 8 28 16 10 12 9 12 -6 1 -15 -12 -17 -11 -14 10 2
14 -3 30 -12 37 -14 11 -13 11 7 2 12 -6 22 -15 22 -20 0 -6 7 -10 16 -10 9 0
12 -5 8 -12 -5 -9 -2 -8 10 1 12 10 20 11 28 3 7 -7 17 -8 29 -1 13 7 21 5 29
-8 11 -17 11 -17 6 0 -3 9 -1 17 5 17 6 0 8 4 4 9 -3 5 -1 12 4 16 6 3 8 -5 5
-18 -4 -26 11 -29 50 -12 11 5 21 3 26 -5 5 -8 11 -2 18 19 6 17 17 31 24 31
9 0 10 -3 2 -8 -6 -4 -14 -17 -18 -29 -6 -18 -3 -22 13 -20 11 0 17 5 15 9 -3
4 1 8 9 8 11 0 13 -7 10 -22 -3 -13 -3 -20 0 -17 15 12 13 55 -2 67 -14 11
-13 11 7 2 12 -6 22 -15 22 -20 0 -6 7 -10 16 -10 9 0 12 -5 8 -12 -5 -9 -2
-8 10 1 12 10 20 11 28 3 7 -7 17 -8 29 -1 13 7 21 5 29 -8 11 -17 11 -17 6 0
-3 11 0 17 10 17 8 0 13 -4 10 -8 -7 -12 25 -11 49 3 26 14 30 35 8 36 -11 0
-13 2 -5 6 7 3 23 -2 36 -11 21 -13 25 -13 30 -1 5 13 34 13 56 0 13 -8 13 8
0 21 -7 7 -6 11 4 11 8 0 13 -3 11 -7 -2 -3 0 -12 5 -20 13 -21 -8 -42 -30
-30 -9 5 -21 6 -25 2 -3 -4 -6 -2 -5 3 5 25 -1 28 -15 8 -9 -12 -21 -20 -28
-18 -6 3 -23 -5 -37 -16 l-25 -21 25 14 c14 7 35 13 47 12 12 -1 20 3 17 7 -3
5 5 7 18 5 13 -3 23 -5 23 -7 0 -1 10 -3 22 -4 12 -1 20 2 17 6 -3 5 5 7 18 6
13 -2 23 -9 23 -15 0 -6 4 -14 8 -19 5 -4 7 -2 5 6 -2 10 6 15 26 15 16 1 31
7 34 14 5 15 -10 16 -26 0 -19 -19 -37 5 -23 29 11 16 11 16 6 -4 -4 -14 -2
-23 4 -23 6 0 11 5 11 10 0 16 32 11 45 -7 12 -17 61 -30 51 -14 -3 5 10 12
29 15 24 5 33 11 28 21 -8 22 5 18 17 -5 6 -11 7 -19 3 -18 -4 2 -9 -1 -10 -6
-1 -5 -7 -13 -15 -17 -8 -5 -9 -9 -2 -9 6 0 17 7 24 15 8 10 17 12 24 6 7 -6
17 -6 26 -1 11 7 20 3 33 -13 l18 -22 -11 23 c-7 15 -7 22 0 22 5 0 10 -6 11
-12 0 -7 7 2 15 20 8 17 20 32 27 32 8 0 9 -2 1 -8 -6 -4 -14 -17 -18 -29 -6
-18 -3 -22 13 -20 11 0 17 5 15 9 -3 4 2 8 10 8 10 0 13 -6 9 -17 -3 -10 -3
-15 1 -11 14 12 13 43 -3 56 -14 11 -13 11 7 2 12 -6 22 -15 22 -20 0 -6 7
-10 16 -10 9 0 12 -5 8 -12 -5 -8 0 -7 11 2 17 14 18 13 12 -5 -6 -17 -5 -18
5 -5 26 30 55 22 49 -13 -1 -5 3 -6 8 -2 6 3 7 13 4 23 -6 15 -5 15 10 3 10
-7 17 -9 17 -3 0 15 30 8 41 -9 7 -11 9 -11 9 -1 0 7 5 10 12 6 6 -4 8 -3 5 3
-4 7 7 13 28 17 24 5 33 11 28 21 -8 22 5 18 17 -5 8 -16 8 -20 -2 -18 -7 2
-12 -3 -10 -9 1 -7 -3 -13 -10 -13 -6 0 -8 -3 -5 -7 4 -3 15 2 26 11 12 11 21
14 26 7 4 -8 12 -8 26 -1 15 8 21 7 25 -4 3 -8 13 -17 22 -21 13 -5 13 -2 -3
15 -10 11 -13 20 -7 20 6 0 14 -5 17 -10 8 -13 64 -9 62 3 -1 5 4 12 12 15 9
3 11 0 6 -8 -5 -9 -4 -11 4 -6 9 6 9 11 0 22 -13 16 -33 19 -24 4 4 -6 -1 -7
-11 -3 -13 5 -16 3 -11 -10 4 -11 1 -17 -9 -17 -8 0 -13 4 -9 9 3 5 0 13 -6
17 -7 4 -9 3 -6 -3 4 -7 -3 -10 -18 -9 -32 1 -17 15 22 19 16 2 35 7 41 11 7
4 21 2 32 -4 14 -7 26 -8 38 -1 10 7 12 11 4 11 -7 0 -10 4 -7 10 3 5 -3 15
-15 22 -11 7 -20 17 -20 22 0 6 5 5 12 -2 17 -17 33 -15 18 3 -11 13 -10 14 5
9 14 -6 16 -4 10 6 -5 9 -4 11 3 6 8 -5 9 -13 3 -24 -10 -20 -4 -42 11 -42 6
0 6 6 -2 15 -9 11 -9 15 -1 15 7 0 9 5 6 10 -3 6 -1 10 4 10 6 0 11 5 11 11 0
5 -4 7 -10 4 -5 -3 -10 -2 -10 4 0 19 19 21 29 4 9 -16 10 -16 8 3 -1 18 -6
21 -27 18 -17 -3 -21 -2 -11 4 7 5 13 27 14 48 0 22 2 31 4 21 3 -9 8 -15 12
-13 4 3 7 -4 7 -14 0 -10 -4 -16 -8 -14 -4 3 -8 0 -8 -5 0 -6 6 -11 13 -11 9
0 14 14 15 42 1 33 -1 39 -9 28 -9 -13 -10 -13 -6 0 2 8 10 14 16 12 6 -1 11
2 11 8 0 9 -15 14 -33 11 -5 -1 -6 3 -2 8 3 6 13 7 23 4 15 -6 15 -5 3 10 -15
19 -10 30 17 33 9 2 18 8 20 13 2 6 8 11 14 11 6 0 6 -6 -2 -15 -9 -10 -9 -15
-1 -15 10 0 15 13 12 33 -1 7 12 10 39 8 10 0 11 1 3 5 -20 9 -15 27 4 20 10
-4 14 -4 10 0 -4 4 -2 13 4 20 8 9 6 12 -8 9 -10 -2 -21 -4 -26 -4 -4 -1 -6
-4 -6 -8 5 -32 -14 -46 -24 -19 -4 10 -1 13 8 10 15 -6 15 12 0 36 -7 12 -6
13 6 3 17 -13 59 -7 59 9 0 6 8 4 18 -3 16 -13 16 -13 2 5 -14 18 -13 19 3 13
11 -4 16 -3 12 3 -3 6 -19 8 -36 5 -18 -3 -29 -1 -29 7 0 6 3 8 7 5 3 -4 12 1
20 11 8 9 11 11 7 3 -5 -9 -3 -12 4 -7 7 4 12 14 12 22 0 9 5 12 12 8 7 -5 8
-3 3 6 -6 10 -4 12 8 7 9 -3 19 -1 23 5 4 6 3 8 -4 4 -6 -3 -13 -2 -16 3 -4 5
3 13 15 16 19 6 20 7 2 21 -16 12 -16 13 -1 14 9 0 20 5 24 11 4 7 0 9 -12 5
-16 -5 -19 0 -20 29 0 19 2 32 5 29 3 -3 6 -12 6 -20 0 -7 4 -14 10 -15 18 -1
16 20 -4 40 -27 27 -14 27 15 0 16 -15 24 -17 29 -8 5 8 4 10 -4 5 -7 -5 -16
4 -24 23 -7 17 -17 28 -22 24 -4 -5 -5 -2 -1 5 10 18 15 15 26 -13 6 -16 14
-23 25 -19 8 3 15 10 15 16 0 5 5 6 12 2 7 -5 8 -3 2 7 -5 8 -9 17 -9 21 0 3
-4 10 -9 15 -5 4 -6 3 -2 -4 3 -6 2 -14 -4 -18 -6 -4 -8 -10 -5 -15 3 -5 1
-11 -4 -14 -5 -4 -8 2 -7 11 2 10 -2 21 -8 25 -8 5 -7 8 2 8 7 0 10 5 7 10 -4
6 -3 10 2 9 22 -4 25 2 7 16 -18 14 -18 15 0 9 16 -6 17 -5 6 15 -6 13 -9 25
-7 28 3 2 8 -5 12 -16 3 -12 11 -19 16 -15 6 3 5 12 -3 22 -11 15 -11 15 2 6
8 -5 22 -10 30 -9 8 0 18 -3 21 -8 3 -5 9 -1 12 8 4 9 3 14 -2 11 -14 -9 -21
20 -8 33 6 6 18 11 27 11 13 0 13 1 0 10 -16 10 -10 13 33 13 17 0 14 11 -4
13 -22 3 -23 5 -9 15 12 8 11 9 -5 5 -16 -5 -21 -1 -21 13 0 16 3 18 15 8 12
-10 13 -9 7 1 -4 7 -1 23 7 36 11 16 12 28 5 42 -9 18 -9 18 6 0 13 -16 13
-21 0 -41 -14 -22 -14 -23 3 -21 10 2 18 11 18 22 0 10 11 24 25 31 15 8 19
13 10 13 -9 0 -22 -6 -29 -12 -11 -11 -12 -9 -6 11 5 15 3 21 -3 17 -6 -4 -8
2 -4 16 l5 22 9 -23 c4 -12 12 -19 18 -16 6 4 7 12 3 18 -5 7 -8 24 -9 39 0
22 3 25 13 16 9 -7 13 -7 13 0 0 6 -8 16 -17 21 -14 8 -15 10 -3 11 19 0 43
-37 30 -45 -6 -3 -14 -4 -19 -1 -11 7 -8 -21 4 -31 4 -5 5 -2 0 6 -6 11 -4 13
9 8 9 -4 14 -3 11 2 -3 5 -1 13 5 16 8 5 7 11 -1 21 -10 13 -7 14 22 9 18 -3
31 -3 28 0 -4 3 -16 7 -27 10 -28 5 -61 24 -44 25 7 0 10 5 6 12 -4 7 -3 8 5
4 6 -4 9 -11 6 -16 -8 -13 37 -3 49 11 8 9 8 10 -2 5 -11 -6 -12 11 -2 44 1 3
6 -4 11 -15 9 -19 9 -19 5 2 -2 12 1 24 8 27 7 3 7 5 -1 5 -7 1 -13 6 -13 12
0 5 5 7 10 4 6 -3 13 1 16 9 8 21 25 10 18 -12 -5 -14 -4 -14 4 -3 7 10 6 20
-1 33 -14 22 -33 18 -29 -6 2 -9 -1 -16 -5 -15 -4 1 -14 1 -22 0 -11 -1 -11
-4 0 -18 12 -14 12 -16 0 -8 -8 5 -12 4 -9 -1 4 -5 -6 -10 -20 -11 -26 -1 -26
-1 -5 10 21 12 23 15 23 39 0 6 3 8 7 5 3 -4 13 2 20 13 12 17 13 24 2 38 -12
15 -11 14 7 -1 20 -16 22 -16 28 -2 9 24 8 25 -11 19 -13 -4 -15 -3 -5 4 7 5
15 18 16 28 2 10 10 20 20 20 13 2 14 1 1 -3 -13 -4 -14 -7 -3 -21 9 -11 10
-14 1 -8 -9 5 -11 2 -7 -8 3 -9 10 -13 16 -10 5 3 7 12 4 20 -3 7 -1 16 4 19
4 3 11 -1 13 -7 4 -9 6 -10 6 -1 1 6 -9 19 -21 27 -16 11 -18 16 -7 16 8 0 20
-5 26 -11 8 -8 13 -7 18 2 6 8 4 10 -5 4 -8 -5 -11 -3 -8 6 3 8 12 12 19 11 8
-2 11 0 7 4 -4 4 2 20 13 35 11 16 16 29 10 29 -6 0 -11 -4 -11 -9 0 -13 -28
-7 -43 9 -10 12 -9 12 4 2 16 -12 29 -7 29 10 0 5 -4 7 -9 4 -5 -4 -7 4 -3 16
5 21 6 21 12 2 4 -10 11 -19 16 -19 5 0 16 -4 24 -10 13 -8 13 -7 1 8 -7 9
-17 15 -21 12 -11 -7 -6 27 8 53 11 19 16 21 28 11 12 -10 15 -10 12 2 -2 8 2
13 9 12 6 -1 10 5 8 15 -1 9 1 22 6 28 5 7 3 11 -6 11 -8 0 -12 -4 -9 -8 2 -4
0 -10 -6 -14 -6 -4 -7 -11 -4 -17 5 -7 2 -8 -6 -3 -9 6 -11 4 -5 -5 6 -9 4
-11 -4 -6 -7 5 -22 0 -34 -11 -22 -18 -22 -18 -4 3 9 11 14 24 10 28 -4 4 1 4
11 0 15 -6 17 -4 11 6 -5 8 -4 11 2 7 6 -4 14 4 17 18 4 14 10 24 14 21 4 -3
14 -1 22 4 13 8 13 11 1 22 -11 11 -13 11 -6 -1 6 -10 4 -12 -5 -6 -8 5 -11 4
-7 -1 6 -11 -48 -12 -58 -2 -4 4 1 5 12 4 19 -4 73 23 73 36 0 12 -8 10 -33
-7 -21 -13 -23 -13 -23 5 0 13 4 16 12 9 15 -12 67 39 59 59 -4 12 -3 13 10 2
10 -8 15 -9 15 -1 0 6 5 11 11 11 6 0 9 -7 6 -14 -4 -10 -1 -13 7 -10 22 9 14
32 -10 29 -14 -1 -21 2 -17 8 4 6 0 8 -11 4 -11 -4 -15 -3 -10 4 3 6 17 8 32
4 l25 -6 -18 27 c-9 14 -12 24 -7 20 6 -3 12 4 14 16 2 14 11 22 26 23 22 2
28 -6 15 -18 -3 -4 -13 -1 -21 6 -13 10 -14 8 -8 -16 5 -22 4 -27 -6 -21 -8 4
-10 3 -5 -2 5 -5 12 -9 15 -9 4 0 14 -4 22 -9 12 -7 12 -6 3 4 -12 13 -7 43 6
36 4 -3 7 11 8 30 1 29 -1 32 -11 18 -11 -14 -13 -14 -25 -1 -9 12 -9 17 0 23
7 4 9 3 5 -4 -3 -6 -2 -13 4 -17 9 -6 14 7 11 27 0 4 10 3 24 -2 19 -7 23 -6
18 5 -3 8 -8 13 -12 11 -3 -2 -15 1 -26 5 -18 9 -18 9 2 5 20 -4 22 -1 18 22
-5 24 -4 24 4 6 11 -25 38 -38 47 -22 4 6 3 8 -2 5 -6 -3 -16 -2 -24 4 -10 6
-11 9 -2 9 6 0 12 5 12 11 0 5 -4 7 -10 4 -5 -3 -10 -1 -10 4 0 6 6 11 13 11
8 0 7 4 -3 11 -12 9 -10 10 8 6 23 -5 23 -5 6 14 -14 16 -20 17 -33 6 -14 -11
-14 -10 -2 6 11 13 17 15 28 6 7 -7 17 -9 20 -5 4 4 1 11 -7 16 -10 6 -11 10
-3 10 7 0 20 14 28 30 16 30 16 31 -10 26 -15 -3 -23 -1 -19 5 3 6 8 8 11 5 3
-3 14 -1 24 4 12 7 20 6 25 -2 4 -7 3 -8 -4 -4 -7 4 -12 5 -12 2 0 -3 9 -10
21 -16 20 -11 20 -11 3 22 -15 30 -15 32 -1 19 14 -11 18 -11 23 4 6 13 9 14
16 3 8 -10 9 -10 5 2 -2 9 -14 14 -30 13 -15 -1 -27 3 -27 9 0 6 3 9 6 6 3 -3
17 5 31 18 14 13 29 21 34 18 5 -3 6 3 2 12 -5 13 -3 15 8 9 8 -4 5 1 -6 12
-11 11 -23 19 -26 17 -3 -2 -6 3 -6 11 0 8 4 15 9 15 4 0 8 -5 8 -12 0 -6 10
-3 22 8 13 12 18 13 13 4 -7 -12 -3 -11 18 3 15 10 33 15 40 11 9 -5 9 -4 0 6
-10 11 -15 11 -28 0 -11 -9 -18 -10 -29 -1 -11 9 -15 9 -19 -1 -4 -10 -7 -10
-18 1 -8 8 -9 11 -2 7 6 -3 14 -2 18 4 4 6 10 8 14 6 4 -3 18 6 30 20 12 14
25 23 28 20 3 -3 -6 -15 -19 -28 -13 -13 -16 -17 -7 -10 10 8 22 12 26 9 5 -3
9 3 10 13 1 11 -3 22 -8 25 -5 4 -7 11 -3 16 3 6 12 3 21 -8 13 -16 13 -16 2
6 -10 21 -9 23 5 18 8 -3 18 -1 22 6 4 7 4 9 -1 5 -4 -4 -17 -3 -28 3 -12 7
-17 7 -13 1 3 -5 -1 -13 -10 -16 -9 -4 -14 -13 -10 -21 3 -8 1 -15 -4 -15 -13
0 -13 11 3 43 8 19 17 25 30 21 9 -3 17 -1 17 5 0 6 -8 11 -17 12 -12 0 -13 2
-5 6 7 3 20 -1 30 -8 9 -7 14 -9 9 -4 -4 4 1 17 10 28 10 11 12 17 6 13 -9 -5
-13 0 -13 13 0 10 -5 21 -12 23 -7 3 -4 7 7 12 11 4 16 4 13 0 -6 -5 14 -34
24 -34 2 0 5 10 5 22 2 18 0 20 -7 8 -8 -12 -10 -12 -10 4 0 10 -8 25 -17 33
-13 10 -9 10 15 -2 24 -12 32 -12 30 -3 -2 7 2 12 8 11 7 -1 10 10 8 29 -2 17
-1 28 3 25 3 -4 12 -2 20 4 10 9 10 15 2 25 -8 9 -4 17 16 30 l26 17 -28 23
c-15 12 -32 20 -37 17 -5 -4 -6 -1 -3 4 5 7 19 5 43 -8 21 -10 41 -16 46 -13
14 9 -1 24 -17 17 -8 -3 -15 -1 -15 5 0 5 8 12 18 15 11 2 22 15 25 28 l6 24
-19 -25 c-10 -14 -20 -23 -22 -20 -2 3 -10 14 -18 25 l-15 20 24 -20 c21 -17
24 -18 18 -3 -16 42 -17 51 -4 29 8 -14 17 -19 21 -13 3 6 2 13 -3 17 -18 10
0 36 20 30 12 -4 21 -1 25 10 5 13 9 13 23 3 10 -8 8 -3 -4 11 -18 22 -18 24
-2 18 11 -4 16 -3 12 4 -4 5 -15 7 -25 4 -19 -6 -23 16 -5 32 4 4 5 2 1 -4 -5
-9 -1 -13 11 -13 19 1 59 47 49 57 -8 8 -37 -18 -31 -27 3 -5 0 -12 -6 -16 -8
-4 -9 -3 -5 4 4 7 3 12 -2 12 -6 0 -12 6 -15 14 -4 10 0 13 14 11 14 -3 19 0
16 9 -3 7 -1 19 3 27 6 8 4 17 -3 22 -8 5 -5 7 7 5 10 -2 21 3 24 11 3 9 0 11
-8 6 -9 -5 -11 -4 -6 4 4 6 12 9 17 6 5 -4 9 -2 9 3 0 15 47 21 62 8 7 -7 7
-4 -2 7 -7 10 -19 16 -26 13 -6 -2 -20 2 -31 10 -14 11 -14 13 -2 8 13 -4 16
1 14 20 -2 14 1 26 7 26 5 0 6 -9 3 -21 -5 -16 -4 -19 5 -14 9 6 11 4 5 -6 -5
-8 -5 -11 0 -7 4 4 15 2 23 -5 10 -8 9 -2 -4 17 -14 22 -15 31 -6 34 10 3 10
7 0 20 -12 15 -11 16 5 3 11 -9 14 -18 8 -25 -6 -7 -4 -16 5 -23 11 -11 12 -8
9 18 -2 17 -9 37 -16 45 -10 12 -10 17 0 27 10 9 11 8 5 -7 -7 -18 -6 -18 19
-1 29 19 36 30 12 22 -8 -4 -17 -2 -20 4 -4 5 -3 9 2 8 20 -3 34 2 28 11 -4 6
-10 8 -15 5 -6 -3 -2 8 8 24 14 25 22 30 47 26 l30 -4 -30 14 c-17 8 -23 14
-14 15 9 0 19 7 23 15 3 8 16 15 28 15 18 0 20 2 9 9 -9 6 -23 5 -35 -1 -19
-10 -20 -10 -7 5 7 10 22 17 32 17 10 0 21 9 24 20 3 11 11 20 16 20 6 0 7 9
3 22 -6 21 -5 22 11 8 18 -14 18 -14 3 10 -8 14 -14 32 -13 40 0 8 -4 18 -10
22 -7 5 -6 8 1 8 6 0 18 -8 25 -17 8 -9 9 -14 3 -10 -6 3 -11 -1 -11 -9 0 -10
4 -11 11 -4 5 5 15 10 20 10 6 0 5 -5 -2 -12 -15 -15 -15 -28 -1 -28 5 0 8 4
4 9 -3 5 -1 12 4 16 6 3 8 12 5 20 -4 8 -10 12 -15 9 -5 -3 -9 2 -9 10 0 9 -5
16 -12 16 -6 0 -9 3 -6 6 4 3 15 1 25 -5 15 -8 20 -7 20 4 0 8 -4 12 -8 9 -4
-2 -10 0 -14 5 -3 6 -12 8 -19 5 -17 -6 -29 23 -14 32 6 4 8 3 4 -4 -3 -6 -2
-13 4 -17 5 -3 10 0 10 7 0 8 5 6 11 -5 9 -15 13 -16 27 -5 12 10 14 10 8 1
-4 -7 -3 -13 2 -13 15 0 23 28 10 36 -7 5 -2 15 15 28 23 19 24 22 8 22 -11 0
-19 -5 -18 -11 1 -5 -3 -9 -10 -8 -7 2 -10 -6 -8 -16 2 -11 -3 -22 -11 -25
-12 -4 -12 -2 -4 14 6 11 8 20 4 20 -4 0 1 9 11 20 10 11 21 17 26 15 4 -3 10
-1 14 5 4 6 10 8 15 5 10 -6 35 23 27 32 -4 3 2 18 13 33 15 20 16 27 5 27 -8
0 -11 -5 -8 -10 3 -6 1 -7 -5 -3 -7 4 -10 2 -9 -6 2 -7 2 -10 0 -5 -3 4 -10 4
-16 1 -7 -3 1 6 16 20 16 15 33 24 38 21 5 -4 9 -1 9 5 0 14 -38 3 -65 -19
-19 -15 -19 -15 -3 4 9 11 17 25 18 30 1 6 4 12 7 15 4 3 3 -1 -1 -7 -4 -8 -1
-13 9 -13 13 0 14 4 4 21 -9 17 -8 20 2 14 9 -6 11 -3 6 8 -3 9 -1 19 5 23 7
4 8 3 4 -4 -4 -7 -2 -12 5 -12 10 0 10 -3 1 -12 -16 -16 -15 -25 2 -25 8 0 12
6 8 15 -3 10 -1 13 6 8 7 -4 12 -3 12 3 0 5 -6 11 -12 14 -7 2 -10 8 -6 12 4
4 16 2 25 -6 15 -11 16 -11 6 1 -14 15 -18 54 -5 46 4 -2 14 -1 21 3 10 6 9
10 -4 14 -9 4 -14 3 -11 -2 3 -4 -7 -6 -22 -3 l-27 6 24 6 c15 3 25 14 28 29
4 30 32 52 60 48 14 -3 20 0 16 9 -2 7 -13 11 -24 9 -10 -2 -21 0 -23 4 -3 4
5 8 16 8 11 1 29 11 40 23 10 11 23 18 29 15 5 -4 9 -2 9 4 0 5 -17 8 -37 6
-31 -2 -34 -1 -20 10 9 6 15 14 12 17 -3 2 2 5 10 5 12 0 12 -4 3 -16 -10 -13
-10 -14 2 -4 9 8 19 9 32 2 12 -6 18 -6 18 1 0 5 -6 10 -13 10 -7 0 -13 9 -14
21 -2 18 0 19 15 7 15 -12 16 -11 3 5 -7 9 -11 17 -7 17 4 0 -1 14 -9 31 -9
17 -14 33 -12 36 3 2 8 -5 12 -16 3 -12 11 -18 17 -15 7 5 8 2 3 -7 -5 -8 -5
-11 0 -7 4 4 13 3 20 -2 8 -7 12 -5 12 5 0 8 -5 12 -10 8 -5 -3 -6 4 -2 18 7
21 6 22 -8 11 -10 -9 -17 -10 -22 -2 -6 9 1 14 18 11 20 -3 17 31 -4 50 l-24
20 26 -16 c25 -15 27 -14 43 10 16 24 16 26 -5 34 -19 6 -20 9 -6 14 10 4 17
2 17 -3 0 -5 8 -7 18 -4 14 5 15 4 2 -5 -8 -6 -11 -11 -6 -11 5 0 3 -7 -4 -15
-9 -10 -9 -15 -1 -15 6 0 11 5 11 10 0 6 10 20 22 32 16 16 17 20 4 15 -10 -4
-23 1 -33 13 -16 19 -18 19 -37 2 -21 -17 -21 -17 -2 5 13 16 23 20 31 13 6
-5 15 -7 18 -3 4 3 -1 12 -11 20 -15 13 -15 13 4 4 12 -6 25 -7 30 -3 5 4 0
-3 -10 -15 -11 -13 -16 -23 -13 -23 11 0 49 41 43 47 -2 3 8 23 24 45 17 22
27 45 23 51 -4 6 0 8 10 4 9 -3 19 -1 23 5 4 7 3 8 -4 4 -7 -4 -12 -2 -12 4 0
6 -4 9 -9 6 -5 -3 -11 2 -13 12 -3 11 0 19 8 19 7 0 10 -5 7 -10 -3 -6 -1 -7
5 -3 7 4 12 2 12 -4 0 -6 5 -8 11 -4 18 10 -39 42 -72 39 -16 -1 -27 1 -24 5
3 4 20 6 38 5 34 -4 35 -2 39 53 2 17 15 15 22 -4 9 -24 7 -31 -5 -14 -9 13
-10 12 -5 -2 3 -11 0 -18 -7 -18 -8 0 -8 -3 2 -9 11 -7 11 -9 0 -13 -8 -3 -5
-7 9 -10 19 -5 20 -4 11 14 -9 17 -9 20 4 15 12 -4 13 1 7 28 -4 18 -3 39 2
46 8 11 9 10 4 -3 -3 -10 -1 -20 5 -23 5 -4 7 -10 4 -14 -2 -5 2 -17 11 -27
14 -18 15 -18 4 4 -8 17 -8 22 2 22 8 0 7 4 -4 10 -10 6 -14 18 -11 30 3 11 0
20 -6 20 -6 0 -11 5 -11 10 0 19 19 10 26 -12 5 -13 7 -26 7 -29 -1 -3 5 -6
13 -6 10 0 11 4 4 11 -16 16 -12 26 8 19 9 -4 2 6 -16 21 -17 15 -29 32 -26
37 3 5 10 7 15 3 5 -3 7 -9 4 -14 -3 -4 2 -11 11 -14 21 -8 31 -7 19 2 -13 9
-38 65 -26 57 5 -3 12 -1 16 5 3 5 1 10 -4 10 -6 0 -11 5 -11 11 0 5 4 8 9 4
5 -3 13 0 16 6 11 16 49 28 61 18 7 -5 11 -3 11 5 0 8 -8 13 -19 11 -16 -3
-21 5 -17 31 0 4 -5 11 -13 16 -10 7 -8 8 5 4 11 -3 20 0 23 9 4 8 11 15 16
15 7 0 6 -5 -1 -14 -9 -11 -8 -15 4 -20 10 -4 14 -2 9 5 -4 6 -1 15 5 19 7 4
13 14 15 23 1 10 11 24 22 32 12 9 15 18 9 22 -5 5 -11 17 -13 28 -3 19 -1 18
15 -3 18 -21 19 -22 19 -3 0 11 -4 17 -8 15 -4 -3 -8 -1 -8 5 0 5 6 12 13 15
6 3 1 3 -12 0 -16 -4 -21 -3 -17 5 4 6 -3 15 -17 20 -14 6 -28 15 -32 21 -4 7
7 5 23 -4 38 -19 39 -19 39 -2 0 8 -7 11 -17 9 -11 -3 -25 7 -39 26 -12 17
-18 31 -12 31 6 0 11 -5 11 -11 0 -5 4 -7 10 -4 5 3 7 0 4 -8 -7 -20 8 -28 26
-15 12 8 12 9 -2 4 -10 -3 -18 -3 -18 1 0 3 8 12 18 20 9 8 11 12 5 8 -7 -3
-23 0 -35 7 -13 7 -27 12 -32 13 -12 0 -25 37 -19 53 3 6 1 12 -5 12 -17 0
-23 32 -10 48 12 14 10 14 -12 2 -21 -10 -23 -10 -12 1 17 19 15 30 -5 22 -15
-6 -16 -5 -3 9 8 9 18 14 21 12 3 -2 6 3 6 11 0 13 -3 13 -18 -1 -20 -18 -39
0 -20 19 9 9 11 7 6 -8 -6 -19 -6 -19 5 -2 16 25 7 31 -22 16 l-23 -12 23 26
c17 18 20 27 11 32 -7 5 -10 4 -6 -2 7 -11 -22 -28 -31 -18 -3 3 1 5 9 5 8 0
5 6 -8 15 -13 9 -20 22 -16 31 4 12 8 12 22 2 14 -11 14 -11 4 3 -7 9 -9 20
-5 25 4 5 -3 0 -16 -11 -22 -18 -23 -18 -16 0 6 14 4 16 -6 10 -9 -5 -11 -4
-6 4 4 6 11 9 16 6 5 -3 12 0 16 6 4 8 3 9 -4 5 -12 -7 -15 1 -15 36 0 10 -5
14 -13 11 -8 -3 -14 -9 -14 -15 0 -5 4 -7 9 -4 5 4 8 -2 6 -11 -2 -10 -4 -20
-4 -23 -1 -3 -9 11 -19 30 -17 34 -19 58 -3 31 6 -9 11 -10 15 -2 4 6 2 11 -4
11 -6 0 -8 4 -5 10 3 5 0 8 -7 5 -7 -3 -19 -1 -27 4 -12 7 -12 15 -4 33 13 29
6 48 -15 47 -11 0 -12 -2 -4 -6 6 -2 9 -10 6 -15 -5 -7 -2 -8 6 -3 9 6 11 4 5
-5 -6 -10 -11 -9 -21 5 -7 10 -11 22 -8 26 3 5 0 9 -6 9 -6 0 -9 4 -6 9 3 5
-1 14 -9 21 -7 6 -11 19 -8 27 4 10 2 14 -5 9 -22 -13 -22 13 0 29 20 15 21
16 3 11 -16 -5 -20 -1 -22 20 -1 19 2 23 10 15 6 -6 16 -11 21 -11 6 0 3 5 -7
11 -10 6 -14 16 -10 22 3 7 -3 3 -15 -7 -20 -17 -32 -10 -14 8 26 27 -8 82
-40 65 -10 -5 -18 -8 -19 -7 0 2 -2 12 -4 22 -2 10 -10 23 -17 27 -8 5 -9 9
-2 9 6 0 18 -10 26 -22 11 -17 16 -19 23 -8 6 9 4 11 -5 5 -9 -5 -11 -1 -6 16
3 13 3 18 0 11 -3 -6 -10 -9 -15 -6 -6 3 -5 12 3 22 10 12 10 14 1 8 -9 -5
-13 0 -13 14 0 14 4 19 13 14 6 -4 8 -3 4 1 -4 5 -14 10 -22 11 -16 2 -16 -36
0 -48 6 -5 6 -8 -1 -8 -20 0 -36 28 -29 51 14 43 12 77 -4 71 -9 -3 -12 -1 -7
6 4 7 3 12 -3 12 -5 0 -13 9 -16 20 -3 11 -14 20 -23 19 -11 0 -12 -2 -4 -6 6
-2 9 -10 6 -15 -4 -7 -2 -8 4 -4 7 4 12 2 12 -3 0 -6 -4 -11 -10 -11 -11 0
-34 40 -23 40 4 0 4 4 -2 8 -31 22 -40 72 -13 72 6 0 5 -7 -3 -17 -12 -14 -12
-16 0 -8 9 5 12 4 8 -2 -4 -6 0 -18 7 -28 10 -14 15 -15 21 -5 5 9 4 11 -3 6
-12 -7 -13 -4 -16 34 0 10 -10 26 -21 34 -17 14 -18 17 -5 26 11 7 6 8 -18 5
-18 -2 -30 0 -28 4 3 4 -5 23 -17 42 -11 19 -22 37 -23 42 -1 4 -3 9 -4 12 -1
3 -3 10 -4 15 0 6 -8 15 -16 21 -12 8 -10 9 7 4 12 -3 24 -1 28 5 4 6 3 10 -2
9 -18 -3 -33 2 -33 11 0 5 6 8 13 6 6 -1 9 -1 4 1 -4 3 -5 10 -1 16 3 7 -4 1
-15 -12 -23 -25 -27 -21 -11 10 9 16 7 21 -14 29 -19 7 -24 14 -19 26 5 13 3
15 -7 9 -9 -5 -11 -4 -6 4 4 6 1 14 -7 17 -13 5 -26 29 -31 59 -1 6 7 15 19
22 18 11 18 12 -10 10 -24 -2 -29 2 -27 17 2 12 -1 16 -9 10 -7 -4 -10 -3 -6
3 4 6 0 13 -8 17 -9 3 -12 12 -8 22 5 13 3 15 -7 9 -9 -5 -11 -4 -6 4 6 9 11
9 22 0 8 -6 17 -9 20 -6 9 9 -35 28 -49 21 -6 -4 -9 -4 -5 1 4 4 1 13 -6 21
-8 7 -11 25 -9 41 4 22 2 25 -6 13 -7 -10 -11 -11 -11 -2 0 21 -3 27 -19 40
-14 11 -14 11 2 6 19 -7 24 12 5 19 -10 4 -9 8 2 16 9 6 10 11 3 11 -6 0 -13
10 -15 23 -3 20 -4 20 -9 -5 -4 -15 -2 -25 2 -22 5 3 6 -2 2 -11 -4 -13 -8
-14 -14 -4 -4 7 -6 16 -3 20 2 4 -3 10 -12 13 -9 4 -14 9 -11 13 4 3 3 11 -2
17 -15 21 -19 43 -9 57 8 12 9 11 5 -1 -3 -10 2 -16 12 -16 10 0 18 6 18 13 0
7 -4 10 -8 7 -4 -2 -11 0 -14 6 -5 8 -11 8 -20 0 -9 -7 -16 -6 -24 4 -10 12
-8 19 8 35 23 23 20 26 -10 11 -11 -6 -19 -7 -18 -3 4 25 -2 43 -13 37 -6 -4
-8 -3 -4 4 3 5 0 13 -6 15 -9 4 -10 6 -1 6 6 1 15 -3 18 -9 3 -5 12 -10 18
-10 7 0 4 5 -6 11 -9 6 -15 15 -12 20 4 5 11 6 17 3 7 -5 8 -2 3 5 -5 9 -10
10 -18 2 -13 -13 -40 -15 -33 -2 4 5 0 12 -6 15 -7 3 -3 3 9 1 12 -3 24 -1 28
5 4 6 3 10 -2 9 -22 -4 -32 3 -28 19 2 11 -3 19 -11 19 -10 0 -11 -4 -3 -13 7
-8 6 -14 -2 -20 -7 -4 -9 -3 -5 4 3 5 1 12 -5 14 -5 2 -7 11 -4 20 4 10 13 15
23 11 14 -4 14 -3 3 5 -8 6 -16 23 -19 39 -4 34 -12 44 -12 16 0 -22 -22 -25
-41 -6 -7 7 -6 12 5 16 11 4 13 1 10 -11 -5 -14 -4 -14 4 -2 6 8 8 18 5 22 -2
5 0 15 6 22 9 10 8 15 -3 19 -11 4 -13 1 -9 -11 6 -15 5 -15 -10 -3 -9 7 -14
17 -11 22 8 13 -10 11 -26 -3 -8 -7 -11 -9 -7 -4 4 5 2 15 -4 23 -6 7 -8 13
-3 13 5 0 2 5 -6 11 -13 9 -13 10 0 6 8 -2 14 -9 13 -15 -2 -6 6 -10 16 -9 10
0 18 6 18 13 0 6 -7 11 -16 10 -9 -1 -16 4 -16 9 0 6 -6 20 -13 33 -7 12 -10
28 -6 34 4 6 3 8 -4 4 -6 -3 -13 -2 -17 4 -3 5 -11 10 -18 10 -6 0 -2 -7 9
-15 10 -8 15 -15 9 -15 -5 0 -3 -5 5 -10 13 -8 13 -11 1 -22 -9 -8 -11 -9 -7
-1 3 6 2 14 -4 18 -6 4 -8 10 -5 15 3 4 -2 11 -11 14 -8 3 -12 10 -9 16 3 5 1
10 -6 10 -6 0 -1 9 12 20 l24 20 -28 -10 c-16 -5 -26 -6 -23 -1 3 5 -1 14 -8
20 -8 7 -13 23 -10 37 3 19 1 24 -8 18 -9 -5 -8 -2 1 10 13 16 13 17 -4 14
-11 -1 -20 3 -21 10 -1 6 -2 17 -3 23 0 5 -5 7 -11 4 -18 -11 2 30 24 47 17
13 17 16 4 15 -9 -1 -17 3 -18 8 0 6 -8 20 -16 33 -8 12 -12 22 -8 22 4 0 1 7
-6 15 -11 14 -15 14 -32 -2 -11 -10 -19 -13 -18 -8 5 22 -1 36 -12 29 -7 -5
-8 -3 -3 5 5 9 11 9 17 3 6 -6 17 -8 24 -5 26 10 14 20 -20 18 -24 -1 -33 2
-29 12 3 7 -1 13 -8 13 -7 0 -9 3 -6 6 4 4 13 1 22 -6 9 -7 18 -11 20 -8 3 3
-11 13 -30 24 -32 17 -40 33 -36 70 1 6 -10 17 -24 24 -18 9 -22 16 -13 21 14
9 31 1 24 -10 -3 -4 1 -8 9 -8 12 0 12 4 -2 20 -17 19 -17 19 7 13 24 -6 24
-6 -3 9 -15 9 -25 20 -22 25 3 4 -6 7 -20 5 -14 -1 -28 2 -32 8 -3 6 -1 7 5 3
7 -4 12 -2 12 4 0 7 9 9 23 5 21 -6 21 -5 2 6 -11 7 -24 17 -28 23 -6 7 -7 5
-4 -5 3 -9 -1 -16 -8 -16 -14 0 -10 22 8 45 8 10 7 12 -4 10 -8 -2 -13 3 -11
10 1 8 -2 11 -8 7 -8 -5 -8 -11 -1 -19 8 -9 7 -13 -3 -13 -9 0 -13 8 -11 19 2
11 -2 21 -10 25 -8 3 -13 9 -10 13 3 4 -2 10 -10 14 -9 3 -12 12 -8 22 5 13 3
15 -7 9 -9 -5 -11 -4 -6 3 4 7 2 12 -5 12 -7 0 -9 3 -6 6 4 4 13 2 20 -4 8 -7
17 -8 21 -4 5 4 7 0 5 -8 -4 -22 10 -60 23 -60 6 0 6 6 -2 15 -7 9 -13 25 -14
38 -1 12 -7 21 -14 19 -16 -3 -16 15 1 22 6 3 3 4 -8 1 -11 -2 -27 0 -35 6
-13 10 -13 10 0 6 10 -3 16 2 17 14 1 10 -3 19 -8 19 -6 0 -7 -4 -4 -10 3 -5
0 -10 -8 -10 -10 0 -13 7 -10 20 3 11 10 17 16 13 6 -3 7 -1 3 5 -4 6 -13 9
-21 6 -8 -4 -12 -11 -8 -17 3 -6 1 -7 -5 -3 -6 4 -8 14 -5 23 5 12 3 14 -8 8
-8 -4 -11 -4 -6 0 4 5 1 15 -7 24 -8 9 -16 23 -18 31 -2 8 -10 21 -18 28 -8 8
-9 11 -2 7 6 -3 16 -4 22 0 11 7 2 35 -12 35 -6 0 -4 -7 3 -17 13 -15 12 -15
-8 -3 -21 14 -21 45 1 34 6 -3 -2 7 -19 22 -16 15 -29 31 -27 36 1 4 -3 8 -9
8 -5 0 -7 5 -3 11 4 8 9 7 15 -2 5 -8 9 -9 9 -3 0 6 -8 18 -17 25 -9 8 -14 9
-10 3 3 -6 0 -11 -8 -11 -8 0 -15 4 -15 8 0 10 30 20 40 14 5 -3 11 -1 14 4 3
5 -10 8 -29 6 -20 -1 -33 0 -30 3 2 3 -5 17 -16 33 l-20 28 21 13 c11 7 20 16
20 21 0 4 -11 0 -25 -9 -24 -16 -25 -16 -18 1 5 14 3 16 -7 10 -8 -5 -11 -4
-6 3 3 5 3 12 -1 15 -5 2 -3 3 2 2 6 -2 16 3 22 11 11 11 7 12 -18 9 -17 -2
-28 -1 -25 2 3 4 0 13 -8 22 -8 9 -16 23 -18 31 -2 8 -7 19 -13 23 -6 5 -3 7
7 4 9 -3 22 2 29 11 8 9 9 14 4 9 -4 -4 -17 0 -27 10 -17 16 -17 17 -1 37 17
20 17 20 1 7 -12 -9 -18 -10 -18 -2 0 6 -4 11 -8 11 -5 0 -9 -7 -9 -15 0 -8 5
-11 10 -8 6 3 7 1 3 -5 -3 -6 1 -18 10 -26 8 -9 11 -16 6 -16 -13 0 -33 25
-37 47 -2 10 -4 19 -5 21 -2 1 -3 8 -4 15 -1 6 -8 11 -15 9 -9 -2 -11 3 -7 13
3 9 6 19 6 21 0 3 4 2 10 -1 6 -3 7 1 4 9 -3 9 -10 16 -16 16 -5 0 -7 -4 -3
-9 3 -5 0 -13 -6 -17 -7 -4 -9 -3 -6 3 4 6 0 14 -9 17 -9 3 -14 13 -11 20 3 8
-1 20 -8 26 -8 7 -13 16 -10 20 3 5 -1 11 -7 13 -9 4 -8 6 2 7 10 0 7 5 -9 14
-20 11 -21 14 -7 19 10 4 15 3 11 -3 -3 -6 -2 -10 3 -10 5 0 9 13 8 29 0 16
-4 27 -8 25 -8 -5 -29 31 -26 45 2 5 -1 9 -7 10 -13 1 -14 -22 -1 -31 6 -4 7
-10 2 -15 -7 -7 -28 19 -26 33 1 4 -4 11 -12 16 -10 8 -10 9 2 5 8 -2 21 1 27
9 11 11 7 12 -17 9 -17 -2 -28 0 -24 6 3 5 9 7 13 5 4 -3 8 4 8 15 1 12 -5 19
-15 19 -13 0 -14 -2 -4 -9 11 -7 11 -9 -1 -14 -26 -10 -27 4 -5 37 12 17 16
26 8 20 -18 -14 -50 -14 -50 -1 0 5 7 7 15 4 8 -4 17 -1 21 5 4 6 3 8 -3 5
-12 -8 -53 20 -53 35 0 6 -7 19 -15 28 -9 10 -18 28 -20 40 -3 13 -10 27 -17
32 -10 6 -10 8 -1 8 15 0 35 -35 25 -45 -4 -5 -1 -5 5 -1 9 5 11 2 7 -11 -4
-14 -4 -15 4 -4 8 11 10 11 15 0 4 -12 7 -12 18 0 8 8 9 11 3 8 -6 -4 -20 3
-30 14 -15 17 -16 22 -4 29 8 5 11 12 7 17 -5 4 -12 1 -17 -7 -6 -8 -10 -13
-11 -10 -6 34 -9 43 -15 48 -4 4 -4 -1 -1 -10 4 -10 2 -18 -3 -18 -6 0 -10 10
-10 23 0 18 -2 19 -11 7 -9 -13 -10 -13 -6 0 2 8 13 14 23 12 16 -2 17 -1 4 7
-13 9 -12 11 5 12 11 0 15 3 8 5 -7 3 -21 1 -31 -5 -17 -9 -19 -8 -15 9 3 11
9 18 12 15 4 -2 8 2 8 9 0 7 -6 13 -13 13 -7 0 -11 -3 -9 -7 2 -3 0 -12 -5
-20 -5 -9 -8 0 -8 26 0 21 0 50 -2 64 l-2 25 -7 -25 c-4 -14 -4 -30 0 -36 5
-6 3 -11 -6 -11 -8 0 -13 3 -10 5 3 3 -2 13 -10 22 -9 10 -17 27 -20 38 -2 11
-11 32 -20 46 -10 14 -13 26 -9 26 5 0 3 4 -4 9 -7 4 -14 18 -15 29 -1 12 -8
22 -15 22 -9 0 -12 6 -8 16 3 9 6 18 6 20 0 3 4 3 8 0 5 -3 9 1 9 9 0 13 -2
13 -17 0 -14 -13 -17 -12 -28 5 -7 12 -8 21 -2 25 17 10 11 25 -9 25 -26 0
-34 26 -16 59 16 32 12 41 -22 41 -14 0 -23 6 -23 15 0 8 -4 15 -10 15 -5 0
-14 10 -21 21 -6 12 -7 19 -1 15 5 -3 15 1 22 9 11 13 10 14 -3 9 -9 -3 -24
-1 -34 6 -16 10 -16 10 3 5 14 -3 26 1 35 12 11 15 11 16 -1 6 -20 -18 -30
-16 -30 7 0 11 -4 20 -10 20 -5 0 -7 -8 -4 -17 5 -15 4 -15 -4 -3 -7 9 -7 18
-1 26 7 8 5 11 -7 10 -11 0 -26 17 -43 48 l-26 50 -3301 0 c-1815 1 -3307 0
-3315 -2z m6791 -282 c-13 -25 -17 -25 -29 -2 -8 15 -5 18 15 20 22 2 23 -1
14 -18z m419 -845 c-6 -6 -16 -2 -27 9 -9 11 -11 16 -4 12 6 -4 12 -2 12 4 0
7 5 6 14 -2 9 -8 11 -17 5 -23z m306 -614 c3 -5 0 -13 -6 -17 -7 -4 -9 -3 -5
4 3 5 0 13 -6 15 -9 4 -10 6 -1 6 6 1 14 -3 18 -8z m244 -465 c9 -10 8 -15 -2
-19 -8 -3 -13 3 -14 14 -2 23 1 24 16 5z m136 -244 c1 -4 6 -17 13 -29 12 -21
9 -27 -11 -24 -5 1 -6 -3 -2 -9 3 -6 10 -8 15 -5 5 3 11 1 15 -5 3 -5 -3 -10
-14 -10 -22 0 -25 7 -21 49 1 14 -2 21 -9 17 -13 -8 -14 -4 -5 19 6 14 19 13
19 -3z m170 -372 c3 -5 1 -10 -4 -10 -6 0 -11 5 -11 10 0 6 2 10 4 10 3 0 8
-4 11 -10z m49 -112 c-3 -5 -12 -4 -20 3 -7 6 -11 15 -8 21 3 5 12 4 20 -3 7
-6 11 -15 8 -21z m41 -65 c-2 -10 -4 -20 -4 -22 -1 -3 -7 1 -13 7 -10 10 -10
15 2 22 19 12 19 13 15 -7z m385 -769 c0 -8 -19 -13 -24 -6 -3 5 1 9 9 9 8 0
15 -2 15 -3z m109 -227 c8 -10 7 -14 -4 -14 -8 0 -12 4 -9 8 2 4 -2 10 -8 12
-8 4 -9 6 -2 6 6 1 17 -5 23 -12z m104 -203 c-4 -10 -11 -7 -25 11 -12 15 -17
33 -13 42 5 14 9 12 25 -11 10 -16 16 -35 13 -42z m97 -160 c8 -20 6 -29 -7
-42 -16 -16 -16 -16 -11 0 4 9 0 22 -8 29 -11 9 -12 15 -3 25 16 19 18 18 29
-12z m20 -78 c0 -3 -4 -8 -10 -11 -5 -3 -10 -1 -10 4 0 6 5 11 10 11 6 0 10
-2 10 -4z m340 -731 c0 -2 -9 -3 -19 -2 -11 0 -18 5 -15 9 4 6 34 0 34 -7z
m15 -40 c-2 -14 1 -28 7 -31 5 -3 0 -13 -11 -21 -12 -8 -19 -18 -16 -23 8 -13
-9 -20 -25 -9 -13 7 -13 9 0 10 10 0 9 3 -5 10 -19 9 -18 9 2 5 13 -2 26 0 29
5 3 5 1 9 -5 9 -9 0 -9 7 4 48 10 30 23 28 20 -3z m-86 -169 c-3 -3 -11 5 -18
17 -13 21 -12 21 5 5 10 -10 16 -20 13 -22z m-25 -2 c3 -8 2 -12 -4 -9 -6 3
-10 10 -10 16 0 14 7 11 14 -7z m-98 -146 c3 -4 -1 -5 -10 -4 -8 1 -18 5 -22
8 -3 4 1 5 10 4 8 -1 18 -5 22 -8z m-51 -147 c3 -5 2 -12 -3 -15 -5 -3 -9 1
-9 9 0 17 3 19 12 6z m21 -46 c1 -8 -1 -15 -6 -15 -10 0 -20 26 -13 34 8 8 16
-1 19 -19z m-32 -20 c-4 -8 -11 -12 -16 -9 -6 4 -5 10 3 15 19 12 19 11 13 -6z
m-34 -1 c0 -8 -19 -13 -24 -6 -3 5 1 9 9 9 8 0 15 -2 15 -3z m44 -26 c-10 -13
-20 -25 -21 -26 -1 -2 -7 7 -14 20 -11 21 -11 22 4 9 14 -11 18 -11 23 3 3 9
11 16 17 16 5 0 2 -10 -9 -22z m-34 -38 c9 -16 8 -18 -5 -14 -8 3 -13 10 -10
14 3 5 -1 11 -7 13 -10 4 -10 6 -1 6 7 1 17 -8 23 -19z m-79 -117 c13 -16 12
-17 -3 -4 -10 7 -18 15 -18 17 0 8 8 3 21 -13z m-61 -128 c0 -2 -9 -3 -19 -2
-11 0 -18 5 -15 9 4 6 34 0 34 -7z m10 -20 c-6 -8 -9 -19 -5 -26 6 -8 2 -8
-12 0 -11 6 -22 8 -25 6 -3 -3 -5 2 -5 10 0 10 4 12 12 5 9 -7 16 -6 25 5 7 8
15 15 17 15 3 0 0 -7 -7 -15z m-66 -13 c3 -5 -1 -9 -9 -9 -8 0 -12 4 -9 9 3 4
7 8 9 8 2 0 6 -4 9 -8z m29 -77 c-3 -9 -8 -14 -10 -11 -3 3 -2 9 2 15 9 16 15
13 8 -4z m-58 -5 c3 -5 1 -10 -4 -10 -6 0 -11 5 -11 10 0 6 2 10 4 10 3 0 8
-4 11 -10z m-15 -34 c0 -3 -4 -8 -10 -11 -5 -3 -10 -1 -10 4 0 6 5 11 10 11 6
0 10 -2 10 -4z m-37 -131 c-3 -9 -8 -14 -10 -11 -3 3 -2 9 2 15 9 16 15 13 8
-4z m-66 -60 c0 -8 -4 -12 -9 -9 -5 3 -6 10 -3 15 9 13 12 11 12 -6z m-64 -90
c-7 -21 -12 -19 -10 4 0 11 5 18 9 15 4 -3 5 -11 1 -19z m45 -10 c-3 -3 -9 2
-12 12 -6 14 -5 15 5 6 7 -7 10 -15 7 -18z m28 -25 c-1 -21 -6 -23 -31 -14
-14 6 -13 8 2 20 25 18 30 17 29 -6z m-90 -35 c0 -14 -2 -25 -6 -25 -4 0 -7
13 -6 29 1 35 10 31 12 -4z m54 7 c0 -4 -9 -8 -19 -8 -11 0 -17 4 -15 8 3 4
12 8 20 8 8 0 14 -4 14 -8z m-110 -187 c0 -5 -5 -3 -10 5 -5 8 -10 20 -10 25
0 6 5 3 10 -5 5 -8 10 -19 10 -25z m5 -38 c-1 -10 -7 -22 -14 -26 -7 -5 -12
-11 -12 -15 1 -3 -1 -6 -4 -6 -3 0 -9 0 -14 0 -5 0 -12 7 -15 16 -5 13 -4 14
7 6 18 -15 30 -3 15 15 -8 11 -7 12 6 7 9 -3 16 -1 16 4 0 6 -8 13 -17 15 -10
3 -7 4 8 4 18 -1 25 -6 24 -20z m-71 -67 c-6 -6 -10 -3 -10 10 0 13 4 16 10
10 7 -7 7 -13 0 -20z m-43 -3 c-10 -9 -11 -8 -5 6 3 10 9 15 12 12 3 -3 0 -11
-7 -18z m19 -43 c0 -8 -19 -13 -24 -6 -3 5 1 9 9 9 8 0 15 -2 15 -3z m-50 -59
c14 -19 14 -19 -2 -6 -10 7 -18 18 -18 24 0 6 1 8 3 6 1 -2 9 -13 17 -24z m-5
-25 c3 -5 1 -10 -4 -10 -6 0 -11 5 -11 10 0 6 2 10 4 10 3 0 8 -4 11 -10z
m-77 -110 c-7 -10 -14 -17 -17 -15 -4 4 18 35 25 35 2 0 -1 -9 -8 -20z m-38
-70 c0 -5 -5 -10 -11 -10 -5 0 -7 5 -4 10 3 6 8 10 11 10 2 0 4 -4 4 -10z m40
0 c0 -5 -4 -10 -10 -10 -5 0 -10 5 -10 10 0 6 5 10 10 10 6 0 10 -4 10 -10z
m-55 -40 c-3 -5 -12 -10 -18 -10 -7 0 -6 4 3 10 19 12 23 12 15 0z m-28 -95
c0 -8 -4 -12 -9 -9 -5 3 -6 10 -3 15 9 13 12 11 12 -6z m15 -83 c-2 -7 -8 -9
-11 -4 -3 5 -13 12 -21 15 -8 3 -3 5 11 4 18 -1 25 -6 21 -15z m-77 -10 c-3
-3 -11 0 -18 7 -9 10 -8 11 6 5 10 -3 15 -9 12 -12z m-31 -50 c3 -5 -1 -9 -9
-9 -8 0 -12 4 -9 9 3 4 7 8 9 8 2 0 6 -4 9 -8z m6 -103 c0 -4 8 -6 18 -2 9 3
4 -4 -11 -16 -21 -18 -25 -26 -17 -36 8 -10 8 -15 -1 -21 -8 -5 -9 -3 -4 6 5
9 2 10 -14 5 -13 -4 -21 -2 -21 5 0 6 5 8 10 5 6 -3 11 -1 11 4 3 26 4 30 11
37 4 4 3 13 -4 21 -8 11 -7 12 6 7 9 -3 16 -10 16 -15z m-37 -14 c-3 -9 -8
-14 -10 -11 -3 3 -2 9 2 15 9 16 15 13 8 -4z m-33 -5 c0 -5 -5 -10 -11 -10 -5
0 -7 5 -4 10 3 6 8 10 11 10 2 0 4 -4 4 -10z m29 -102 c-11 -21 -15 -22 -25
-6 -4 7 -3 8 4 4 12 -7 16 4 13 34 -2 13 0 13 8 1 6 -10 6 -21 0 -33z m-19 18
c0 -2 -7 -7 -16 -10 -8 -3 -12 -2 -9 4 6 10 25 14 25 6z m-45 -56 c3 -5 1 -10
-4 -10 -6 0 -11 5 -11 10 0 6 2 10 4 10 3 0 8 -4 11 -10z m-50 -50 c10 -11 16
-20 13 -20 -3 0 -13 9 -23 20 -10 11 -16 20 -13 20 3 0 13 -9 23 -20z m50 1
c-3 -5 -1 -12 5 -16 6 -4 7 -11 3 -18 -4 -7 -9 -4 -13 9 -7 18 -4 34 6 34 3 0
3 -4 -1 -9z m-74 -78 c8 -8 8 -13 0 -18 -7 -3 -10 -1 -9 6 2 7 -2 13 -9 14 -6
0 -14 3 -18 7 -4 3 0 5 9 4 9 -1 21 -7 27 -13z m-21 -27 c0 -2 -8 -10 -17 -17
-16 -13 -17 -12 -4 4 13 16 21 21 21 13z m10 -51 c0 -2 -9 -3 -19 -2 -11 0
-18 5 -15 9 4 6 34 0 34 -7z m-75 -55 c-3 -5 -12 -10 -18 -10 -7 0 -6 4 3 10
19 12 23 12 15 0z m-5 -40 c0 -5 -2 -10 -4 -10 -3 0 -8 5 -11 10 -3 6 -1 10 4
10 6 0 11 -4 11 -10z m38 -22 c-6 -16 -21 -14 -24 4 -1 11 3 15 12 11 8 -3 13
-10 12 -15z m-63 -37 c-8 -13 -32 -14 -39 -2 -4 5 3 7 14 4 12 -3 20 0 20 8 0
7 3 10 6 6 3 -3 3 -10 -1 -16z m-5 -42 c0 -4 -6 -9 -13 -12 -8 -3 -14 0 -14 7
0 7 6 13 14 13 7 0 13 -4 13 -8z m-40 -83 c0 -2 -7 -7 -16 -10 -8 -3 -12 -2
-9 4 6 10 25 14 25 6z m-73 -109 c0 -8 -6 -14 -14 -14 -9 0 -10 4 -2 14 6 7
12 13 14 13 1 0 2 -6 2 -13z m-132 -226 c-9 -8 -36 -10 -30 -2 2 4 11 8 20 8
8 0 13 -3 10 -6z m35 2 c0 -5 -5 -15 -10 -23 -7 -12 -9 -10 -7 8 1 19 17 33
17 15z m-147 -218 c-3 -9 -8 -14 -10 -11 -3 3 -2 9 2 15 9 16 15 13 8 -4z m4
-47 c-3 -8 -6 -5 -6 6 -1 11 2 17 5 13 3 -3 4 -12 1 -19z m-37 -18 c0 -5 -5
-10 -11 -10 -5 0 -7 5 -4 10 3 6 8 10 11 10 2 0 4 -4 4 -10z m13 -35 c-3 -9
-8 -14 -10 -11 -3 3 -2 9 2 15 9 16 15 13 8 -4z m57 -6 c0 -3 -8 -13 -18 -22
-12 -11 -22 -13 -32 -6 -12 8 -12 9 4 7 10 -2 21 3 23 10 3 8 -1 10 -13 5 -11
-4 -15 -3 -10 5 7 11 46 13 46 1z m-92 -21 c-2 -7 3 -12 10 -10 8 1 11 -2 7
-8 -5 -8 -11 -8 -21 1 -7 6 -11 15 -8 20 8 13 14 11 12 -3z m-3 -37 c3 -5 2
-12 -3 -15 -5 -3 -9 1 -9 9 0 17 3 19 12 6z m-70 -100 c-9 -8 -36 -10 -30 -2
2 4 11 8 20 8 8 0 13 -3 10 -6z m35 0 c0 -6 -4 -12 -8 -15 -5 -3 -9 1 -9 9 0
8 4 15 9 15 4 0 8 -4 8 -9z m-23 -106 c0 -8 -5 -12 -10 -8 -5 3 -6 -4 -2 -17
7 -21 6 -21 -12 -3 -18 18 -18 18 2 30 11 6 20 11 21 12 0 1 1 -6 1 -14z m-77
-35 c0 -5 -5 -10 -11 -10 -5 0 -7 5 -4 10 3 6 8 10 11 10 2 0 4 -4 4 -10z
m-10 -54 c0 -2 -8 -10 -17 -17 -16 -13 -17 -12 -4 4 13 16 21 21 21 13z m-39
-33 c12 -16 12 -17 -2 -6 -9 7 -20 9 -24 5 -5 -4 -5 -1 -1 6 9 16 11 15 27 -5z
m-11 -102 c0 -5 -7 -12 -16 -15 -14 -5 -15 -4 -4 9 14 17 20 19 20 6z m-70
-86 c-14 -17 -30 -20 -30 -4 0 5 4 8 9 4 5 -3 12 -1 16 5 3 5 9 10 12 10 3 0
0 -7 -7 -15z m53 9 c12 -4 9 -12 -13 -36 -16 -17 -27 -36 -26 -42 2 -6 1 -8
-1 -3 -3 4 -9 5 -13 2 -5 -3 -12 -1 -15 5 -4 6 -1 9 7 8 8 -2 12 6 11 22 -1
14 1 19 3 13 3 -7 10 -13 15 -13 6 0 9 6 8 13 -4 35 0 41 24 31z m-178 -233
c-9 -8 -36 -10 -30 -2 2 4 11 8 20 8 8 0 13 -3 10 -6z m-25 -85 c0 -2 -8 -10
-17 -17 -16 -13 -17 -12 -4 4 13 16 21 21 21 13z m37 -3 c-4 -3 -1 -13 6 -21
8 -11 8 -14 0 -9 -7 4 -14 -1 -18 -13 -4 -11 -17 -27 -30 -36 -23 -15 -73 -29
-61 -16 4 4 11 7 14 7 4 1 18 5 31 9 17 6 20 10 11 16 -9 6 -7 10 9 15 12 3
21 12 20 18 -3 25 1 37 13 37 6 0 8 -3 5 -7z m-42 -33 c-3 -5 -12 -10 -18 -10
-7 0 -6 4 3 10 19 12 23 12 15 0z m-22 -109 c21 10 21 9 3 -5 -22 -18 -37 -12
-35 12 1 15 2 15 6 0 4 -15 8 -16 26 -7z m-58 -31 c3 -5 1 -10 -4 -10 -6 0
-11 5 -11 10 0 6 2 10 4 10 3 0 8 -4 11 -10z m-130 -220 c3 -6 -1 -7 -9 -4
-18 7 -21 14 -7 14 6 0 13 -4 16 -10z m-1 -59 c-3 -4 -9 -6 -12 -6 -4 0 -12
-3 -18 -7 -6 -4 -11 -1 -11 5 0 7 11 13 23 13 13 0 21 -2 18 -5z m-4247 -78
c0 -10 -6 -27 -13 -37 -13 -18 -13 -18 -11 2 0 11 5 18 11 15 5 -4 7 1 3 9 -3
9 -3 19 0 22 9 9 10 8 10 -11z m3840 0 c0 -10 -6 -27 -13 -37 -13 -18 -13 -18
-11 2 0 11 5 18 11 15 5 -4 7 1 3 9 -3 9 -3 19 0 22 9 9 10 8 10 -11z m336 2
c-3 -9 -8 -14 -10 -11 -3 3 -2 9 2 15 9 16 15 13 8 -4z m-6413 -2 c0 -1 -8 -7
-18 -12 -13 -7 -19 -6 -19 2 0 7 9 13 19 13 10 0 18 -1 18 -3z m250 1 c0 -8
-19 -13 -24 -6 -3 5 1 9 9 9 8 0 15 -2 15 -3z m327 -9 c0 -6 -8 -11 -17 -11
-9 0 -17 5 -17 11 0 6 8 11 17 11 9 0 17 -5 17 -11z m63 8 c0 -1 -8 -7 -18
-12 -13 -7 -19 -6 -19 2 0 7 9 13 19 13 10 0 18 -1 18 -3z m250 1 c0 -8 -19
-13 -24 -6 -3 5 1 9 9 9 8 0 15 -2 15 -3z m167 -9 c0 -6 -8 -11 -17 -11 -9 0
-17 5 -17 11 0 6 8 11 17 11 9 0 17 -5 17 -11z m103 6 c0 -6 -4 -12 -8 -15 -5
-3 -9 1 -9 9 0 8 4 15 9 15 4 0 8 -4 8 -9z m217 -6 c0 -6 -8 -11 -17 -11 -9 0
-17 5 -17 11 0 6 8 11 17 11 9 0 17 -5 17 -11z m101 -10 c0 -30 -7 -28 -13 4
-2 11 0 21 4 21 5 0 9 -11 9 -25z m117 15 c3 -5 1 -10 -4 -10 -6 0 -11 5 -11
10 0 6 2 10 4 10 3 0 8 -4 11 -10z m225 -16 c0 -2 -9 0 -20 6 -11 6 -20 13
-20 16 0 2 9 0 20 -6 11 -6 20 -13 20 -16z m56 7 c1 -6 0 -7 -3 -1 -2 5 -9 8
-13 5 -5 -3 -11 -1 -14 4 -4 5 2 8 11 7 9 -2 18 -8 19 -15z m301 4 c0 -6 -8
-11 -17 -11 -9 0 -17 5 -17 11 0 6 8 11 17 11 9 0 17 -5 17 -11z m143 5 c0 -5
-5 -10 -11 -10 -5 0 -7 5 -4 10 3 6 8 10 11 10 2 0 4 -4 4 -10z m235 0 c3 -5
1 -10 -4 -10 -6 0 -11 5 -11 10 0 6 2 10 4 10 3 0 8 -4 11 -10z m80 0 c-2 -3
0 -12 5 -20 13 -21 -8 -42 -30 -30 -9 5 -21 6 -25 2 -3 -4 -6 -2 -5 3 5 23 -1
28 -13 10 -15 -20 -63 -29 -72 -14 -4 5 1 12 9 15 9 3 13 11 9 18 -4 6 5 3 19
-6 22 -14 27 -15 32 -3 5 13 34 13 56 0 13 -8 13 8 0 21 -7 7 -6 11 4 11 8 0
13 -3 11 -7z m145 -16 c0 -2 -9 0 -20 6 -11 6 -20 13 -20 16 0 2 9 0 20 -6 11
-6 20 -13 20 -16z m56 14 c3 -4 -1 -5 -10 -4 -8 1 -18 5 -22 8 -3 4 1 5 10 4
8 -1 18 -5 22 -8z m141 -3 c0 -6 -8 -11 -17 -11 -9 0 -17 5 -17 11 0 6 8 11
17 11 9 0 17 -5 17 -11z m103 6 c0 -6 -4 -12 -8 -15 -5 -3 -9 1 -9 9 0 8 4 15
9 15 4 0 8 -4 8 -9z m217 -6 c0 -6 -8 -11 -17 -11 -9 0 -17 5 -17 11 0 6 8 11
17 11 9 0 17 -5 17 -11z m101 -10 c0 -30 -7 -28 -13 4 -2 11 0 21 4 21 5 0 9
-11 9 -25z m379 10 c0 -6 -8 -11 -17 -11 -9 0 -17 5 -17 11 0 6 8 11 17 11 9
0 17 -5 17 -11z m63 8 c0 -1 -8 -7 -18 -12 -13 -7 -19 -6 -19 2 0 7 9 13 19
13 10 0 18 -1 18 -3z m250 1 c0 -8 -19 -13 -24 -6 -3 5 1 9 9 9 8 0 15 -2 15
-3z m327 -9 c0 -6 -8 -11 -17 -11 -9 0 -17 5 -17 11 0 6 8 11 17 11 9 0 17 -5
17 -11z m63 8 c0 -1 -8 -7 -18 -12 -13 -7 -19 -6 -19 2 0 7 9 13 19 13 10 0
18 -1 18 -3z m250 1 c0 -8 -19 -13 -24 -6 -3 5 1 9 9 9 8 0 15 -2 15 -3z m167
-9 c0 -6 -8 -11 -17 -11 -9 0 -17 5 -17 11 0 6 8 11 17 11 9 0 17 -5 17 -11z
m103 6 c0 -6 -4 -12 -8 -15 -5 -3 -9 1 -9 9 0 8 4 15 9 15 4 0 8 -4 8 -9z
m217 -6 c0 -6 -8 -11 -17 -11 -9 0 -17 5 -17 11 0 6 8 11 17 11 9 0 17 -5 17
-11z m101 -10 c0 -30 -7 -28 -13 4 -2 11 0 21 4 21 5 0 9 -11 9 -25z m117 15
c3 -5 1 -10 -4 -10 -6 0 -11 5 -11 10 0 6 2 10 4 10 3 0 8 -4 11 -10z m225
-16 c0 -2 -9 0 -20 6 -11 6 -20 13 -20 16 0 2 9 0 20 -6 11 -6 20 -13 20 -16z
m56 7 c1 -6 0 -7 -3 -1 -2 5 -9 8 -13 5 -5 -3 -11 -1 -14 4 -4 5 2 8 11 7 9
-2 18 -8 19 -15z m301 4 c0 -6 -8 -11 -17 -11 -9 0 -17 5 -17 11 0 6 8 11 17
11 9 0 17 -5 17 -11z m143 5 c0 -5 -5 -10 -11 -10 -5 0 -7 5 -4 10 3 6 8 10
11 10 2 0 4 -4 4 -10z m-5884 -22 c-3 -23 -26 -31 -38 -14 -4 6 -14 4 -25 -5
-16 -12 -17 -12 -6 2 7 9 9 19 5 24 -4 4 3 2 16 -4 23 -12 46 -6 37 10 -4 5
-1 9 4 9 6 0 9 -10 7 -22z m959 12 c-3 -5 -12 -10 -18 -10 -7 0 -6 4 3 10 19
12 23 12 15 0z m1122 -9 c-1 -23 -33 -45 -43 -30 -3 6 -1 16 5 22 9 9 11 7 6
-8 -7 -20 -6 -20 9 -1 9 11 16 23 16 28 0 4 2 8 4 8 3 0 4 -8 3 -19z m798 9
c-3 -5 -12 -10 -18 -10 -7 0 -6 4 3 10 19 12 23 12 15 0z m325 0 c0 -5 -8 -10
-17 -10 -15 0 -16 2 -3 10 19 12 20 12 20 0z m636 -12 c-3 -23 -26 -31 -38
-14 -4 6 -14 4 -25 -5 -16 -12 -17 -12 -6 2 7 9 9 19 5 24 -4 4 3 2 16 -4 23
-12 46 -6 37 10 -4 5 -1 9 4 9 6 0 9 -10 7 -22z m959 12 c-3 -5 -12 -10 -18
-10 -7 0 -6 4 3 10 19 12 23 12 15 0z m1122 -9 c-1 -23 -33 -45 -43 -30 -3 6
-1 16 5 22 9 9 11 7 6 -8 -7 -20 -6 -20 9 -1 9 11 16 23 16 28 0 4 2 8 4 8 3
0 4 -8 3 -19z m278 1 c-3 -3 -11 0 -18 7 -9 10 -8 11 6 5 10 -3 15 -9 12 -12z
m-6505 -24 c0 6 8 12 17 12 15 0 14 -2 -3 -15 -17 -12 -20 -12 -31 2 -10 12
-13 13 -13 3 0 -7 -2 -11 -5 -8 -3 3 -2 13 1 23 6 15 8 15 20 -6 7 -13 13 -18
14 -11z m122 6 c-2 -16 0 -16 18 5 11 13 23 22 25 19 3 -2 -5 -15 -17 -28 -19
-21 -22 -21 -33 -6 -13 17 -30 23 -20 7 3 -5 0 -13 -7 -17 -7 -4 -10 -3 -5 1
4 5 0 16 -8 25 -14 15 -12 16 18 15 25 -2 31 -6 29 -21z m290 14 c-7 -7 -12
-17 -12 -22 1 -6 10 0 21 13 11 13 22 22 24 19 8 -8 -36 -49 -46 -43 -13 9
-11 32 4 38 20 9 22 8 9 -5z m350 -14 c-2 -16 0 -16 18 5 11 13 23 22 25 19 3
-2 -5 -15 -17 -28 -19 -21 -22 -21 -33 -6 -13 17 -30 23 -20 7 3 -5 0 -13 -7
-17 -7 -4 -10 -3 -5 1 4 5 0 16 -8 25 -14 15 -12 16 18 15 25 -2 31 -6 29 -21z
m175 10 c11 3 20 -1 20 -8 0 -15 -39 -16 -49 -2 -4 6 -14 4 -25 -5 -16 -12
-17 -12 -6 2 7 9 9 19 5 24 -4 4 3 3 14 -3 12 -6 30 -10 41 -8z m225 1 c14
-19 8 -27 -8 -11 -15 16 -34 13 -34 -4 0 -5 8 -7 18 -4 14 5 14 4 2 -4 -16
-12 -30 -7 -30 13 0 22 38 30 52 10z m62 -7 c-2 -13 -2 -17 2 -10 3 6 10 12
16 12 6 0 6 -6 -2 -15 -7 -8 -16 -15 -21 -15 -10 0 -12 34 -2 43 10 11 11 8 7
-15z m258 7 c14 -19 8 -27 -8 -11 -15 16 -34 13 -34 -4 0 -5 8 -7 18 -4 14 5
14 4 2 -4 -16 -12 -30 -7 -30 13 0 22 38 30 52 10z m62 -7 c-2 -13 -2 -17 2
-10 3 6 10 12 16 12 6 0 6 -6 -2 -15 -7 -8 -16 -15 -21 -15 -10 0 -12 34 -2
43 10 11 11 8 7 -15z m221 -17 c4 -11 2 -11 -8 -3 -8 7 -18 8 -23 4 -5 -4 -6
-3 -2 2 4 5 2 16 -5 24 -11 13 -9 14 10 1 13 -7 25 -20 28 -28z m247 27 c-7
-7 -12 -17 -12 -22 1 -6 10 0 21 13 11 13 22 22 24 19 8 -8 -36 -49 -46 -43
-13 9 -11 32 4 38 20 9 22 8 9 -5z m215 -7 c-1 -13 -7 -18 -20 -15 -11 2 -22
6 -26 10 -3 4 2 4 12 1 11 -4 20 -1 23 8 8 21 13 19 11 -4z m88 9 c-3 -5 -1
-10 4 -10 6 0 11 -4 11 -8 0 -5 -13 -8 -30 -8 -36 0 -39 9 -7 24 29 14 29 14
22 2z m177 -2 c-7 -7 -12 -17 -12 -22 1 -6 10 0 21 13 11 13 22 22 24 19 8 -8
-36 -49 -46 -43 -13 9 -11 32 4 38 20 9 22 8 9 -5z m233 -27 c4 -11 2 -11 -8
-3 -8 7 -18 8 -23 4 -5 -4 -6 -3 -2 2 4 5 2 16 -5 24 -11 13 -9 14 10 1 13 -7
25 -20 28 -28z m357 24 c14 -19 8 -27 -8 -11 -15 16 -34 13 -34 -4 0 -5 8 -7
18 -4 14 5 14 4 2 -4 -16 -12 -30 -7 -30 13 0 22 38 30 52 10z m62 -7 c-2 -13
-2 -17 2 -10 3 6 10 12 16 12 6 0 6 -6 -2 -15 -7 -8 -16 -15 -21 -15 -10 0
-12 34 -2 43 10 11 11 8 7 -15z m258 7 c14 -19 8 -27 -8 -11 -15 16 -34 13
-34 -4 0 -5 8 -7 18 -4 14 5 14 4 2 -4 -16 -12 -30 -7 -30 13 0 22 38 30 52
10z m62 -7 c-2 -13 -2 -17 2 -10 3 6 10 12 16 12 6 0 6 -6 -2 -15 -7 -8 -16
-15 -21 -15 -10 0 -12 34 -2 43 10 11 11 8 7 -15z m148 10 c-7 -7 -12 -17 -12
-22 1 -6 10 0 21 13 11 13 22 22 24 19 8 -8 -36 -49 -46 -43 -13 9 -11 32 4
38 20 9 22 8 9 -5z m350 -14 c-2 -16 0 -16 18 5 11 13 23 22 25 19 3 -2 -5
-15 -17 -28 -19 -21 -22 -21 -33 -6 -13 17 -30 23 -20 7 3 -5 0 -13 -7 -17 -7
-4 -10 -3 -5 1 4 5 0 16 -8 25 -14 15 -12 16 18 15 25 -2 31 -6 29 -21z m290
14 c-7 -7 -12 -17 -12 -22 1 -6 10 0 21 13 11 13 22 22 24 19 8 -8 -36 -49
-46 -43 -13 9 -11 32 4 38 20 9 22 8 9 -5z m350 -14 c-2 -16 0 -16 18 5 11 13
23 22 25 19 3 -2 -5 -15 -17 -28 -19 -21 -22 -21 -33 -6 -13 17 -30 23 -20 7
3 -5 0 -13 -7 -17 -7 -4 -10 -3 -5 1 4 5 0 16 -8 25 -14 15 -12 16 18 15 25
-2 31 -6 29 -21z m175 10 c11 3 20 -1 20 -8 0 -15 -39 -16 -49 -2 -4 6 -14 4
-25 -5 -16 -12 -17 -12 -6 2 7 9 9 19 5 24 -4 4 3 3 14 -3 12 -6 30 -10 41 -8z
m225 1 c14 -19 8 -27 -8 -11 -15 16 -34 13 -34 -4 0 -5 8 -7 18 -4 14 5 14 4
2 -4 -16 -12 -30 -7 -30 13 0 22 38 30 52 10z m62 -7 c-2 -13 -2 -17 2 -10 3
6 10 12 16 12 6 0 6 -6 -2 -15 -7 -8 -16 -15 -21 -15 -10 0 -12 34 -2 43 10
11 11 8 7 -15z m258 7 c14 -19 8 -27 -8 -11 -15 16 -34 13 -34 -4 0 -5 8 -7
18 -4 14 5 14 4 2 -4 -16 -12 -30 -7 -30 13 0 22 38 30 52 10z m62 -7 c-2 -13
-2 -17 2 -10 3 6 10 12 16 12 6 0 6 -6 -2 -15 -7 -8 -16 -15 -21 -15 -10 0
-12 34 -2 43 10 11 11 8 7 -15z m221 -17 c4 -11 2 -11 -8 -3 -8 7 -18 8 -23 4
-5 -4 -6 -3 -2 2 4 5 2 16 -5 24 -11 13 -9 14 10 1 13 -7 25 -20 28 -28z m247
27 c-7 -7 -12 -17 -12 -22 1 -6 10 0 21 13 11 13 22 22 24 19 8 -8 -36 -49
-46 -43 -13 9 -11 32 4 38 20 9 22 8 9 -5z m215 -7 c-1 -13 -7 -18 -20 -15
-11 2 -22 6 -26 10 -3 4 2 4 12 1 11 -4 20 -1 23 8 8 21 13 19 11 -4z m88 9
c-3 -5 -1 -10 4 -10 6 0 11 -4 11 -8 0 -5 -13 -8 -30 -8 -36 0 -39 9 -7 24 29
14 29 14 22 2z m177 -2 c-7 -7 -12 -17 -12 -22 1 -6 10 0 21 13 11 13 22 22
24 19 8 -8 -36 -49 -46 -43 -13 9 -11 32 4 38 20 9 22 8 9 -5z m-5855 -11 c0
-7 -9 -13 -19 -13 -18 0 -18 1 -2 13 10 7 18 13 19 13 1 0 2 -6 2 -13z m800
-2 c0 -8 -4 -12 -9 -9 -5 3 -6 10 -3 15 9 13 12 11 12 -6z m800 2 c0 -7 -9
-13 -19 -13 -18 0 -18 1 -2 13 10 7 18 13 19 13 1 0 2 -6 2 -13z m800 0 c0 -7
-7 -13 -16 -13 -9 -1 -22 -3 -30 -5 -7 -2 -16 2 -19 10 -3 9 0 12 9 9 11 -4
45 3 55 11 0 1 1 -5 1 -12z m320 -2 c0 -8 -4 -12 -9 -9 -5 3 -6 10 -3 15 9 13
12 11 12 -6z m480 2 c0 -7 -9 -13 -19 -13 -18 0 -18 1 -2 13 10 7 18 13 19 13
1 0 2 -6 2 -13z m640 0 c0 -7 -9 -13 -19 -13 -18 0 -18 1 -2 13 10 7 18 13 19
13 1 0 2 -6 2 -13z m800 -2 c0 -8 -4 -12 -9 -9 -5 3 -6 10 -3 15 9 13 12 11
12 -6z m800 2 c0 -7 -9 -13 -19 -13 -18 0 -18 1 -2 13 10 7 18 13 19 13 1 0 2
-6 2 -13z m-5387 -1 c0 -2 -7 -9 -15 -16 -13 -11 -14 -10 -9 4 5 14 24 23 24
12z m102 -11 c5 -6 8 -6 8 3 0 6 8 12 17 12 15 0 14 -2 -2 -14 -11 -8 -24 -11
-30 -8 -5 4 -16 7 -23 8 -25 4 -25 13 -1 11 13 0 27 -6 31 -12z m378 11 c0 -2
-7 -9 -15 -16 -13 -11 -14 -10 -9 4 5 14 24 23 24 12z m84 -8 c-3 -4 -11 -5
-19 -1 -21 7 -19 12 4 10 11 0 18 -5 15 -9z m236 8 c0 -2 -7 -9 -15 -16 -13
-11 -14 -10 -9 4 5 14 24 23 24 12z m84 -8 c-3 -4 -11 -5 -19 -1 -21 7 -19 12
4 10 11 0 18 -5 15 -9z m476 -3 c-24 -13 -40 -11 -40 4 0 4 15 8 33 9 l32 1
-25 -14z m240 11 c0 -2 -7 -9 -15 -16 -13 -11 -14 -10 -9 4 5 14 24 23 24 12z
m800 0 c0 -2 -7 -9 -15 -16 -13 -11 -14 -10 -9 4 5 14 24 23 24 12z m84 -8
c-3 -4 -11 -5 -19 -1 -21 7 -19 12 4 10 11 0 18 -5 15 -9z m236 8 c0 -2 -7 -9
-15 -16 -13 -11 -14 -10 -9 4 5 14 24 23 24 12z m84 -8 c-3 -4 -11 -5 -19 -1
-21 7 -19 12 4 10 11 0 18 -5 15 -9z m396 8 c0 -2 -7 -9 -15 -16 -13 -11 -14
-10 -9 4 5 14 24 23 24 12z m102 -11 c5 -6 8 -6 8 3 0 6 8 12 17 12 15 0 14
-2 -2 -14 -11 -8 -24 -11 -30 -8 -5 4 -16 7 -23 8 -25 4 -25 13 -1 11 13 0 27
-6 31 -12z m538 11 c0 -2 -7 -9 -15 -16 -13 -11 -14 -10 -9 4 5 14 24 23 24
12z m102 -11 c5 -6 8 -6 8 3 0 6 8 12 17 12 15 0 14 -2 -2 -14 -11 -8 -24 -11
-30 -8 -5 4 -16 7 -23 8 -25 4 -25 13 -1 11 13 0 27 -6 31 -12z m378 11 c0 -2
-7 -9 -15 -16 -13 -11 -14 -10 -9 4 5 14 24 23 24 12z m84 -8 c-3 -4 -11 -5
-19 -1 -21 7 -19 12 4 10 11 0 18 -5 15 -9z m236 8 c0 -2 -7 -9 -15 -16 -13
-11 -14 -10 -9 4 5 14 24 23 24 12z m84 -8 c-3 -4 -11 -5 -19 -1 -21 7 -19 12
4 10 11 0 18 -5 15 -9z m476 -3 c-24 -13 -40 -11 -40 4 0 4 15 8 33 9 l32 1
-25 -14z m240 11 c0 -2 -7 -9 -15 -16 -13 -11 -14 -10 -9 4 5 14 24 23 24 12z"/>
<path d="M11420 7013 c0 -6 8 -17 18 -24 16 -13 16 -13 2 6 -8 11 -16 22 -17
24 -2 2 -3 0 -3 -6z"/>
<path d="M11520 6816 c0 -2 7 -9 15 -16 13 -11 14 -10 9 4 -5 14 -24 23 -24
12z"/>
<path d="M11906 5952 c-2 -4 -1 -14 4 -22 7 -11 9 -9 7 8 -1 24 -3 26 -11 14z"/>
<path d="M5520 906 c0 -3 9 -10 19 -16 15 -7 22 -7 27 2 4 7 4 10 -1 6 -4 -4
-16 -3 -26 3 -11 5 -19 7 -19 5z"/>
<path d="M5441 891 c-10 -7 -7 -9 12 -8 14 1 23 5 20 10 -6 9 -15 9 -32 -2z"/>
<path d="M9364 11109 c-3 -6 -1 -16 5 -22 9 -9 10 -7 5 7 -6 15 -4 17 6 11 9
-5 11 -4 6 3 -9 15 -13 15 -22 1z"/>
<path d="M9440 10980 c-8 -5 -12 -12 -9 -15 4 -3 12 1 19 10 14 17 11 19 -10
5z"/>
<path d="M9460 10965 c-10 -12 -9 -16 4 -21 9 -4 20 -4 23 0 4 3 -2 6 -13 6
-19 1 -19 1 0 15 11 8 15 15 9 15 -6 0 -16 -7 -23 -15z"/>
<path d="M9500 10865 c-6 -8 -9 -19 -5 -25 10 -15 24 -3 22 20 -2 24 -1 24
-17 5z"/>
<path d="M9530 10846 c0 -8 4 -17 9 -20 5 -4 7 3 4 14 -6 23 -13 26 -13 6z"/>
<path d="M9525 10791 c-6 -11 9 -23 19 -14 9 9 7 23 -3 23 -6 0 -12 -4 -16 -9z"/>
<path d="M9566 10725 c11 -8 15 -15 11 -15 -4 0 -2 -10 5 -22 7 -13 11 -26 10
-30 -1 -5 3 -8 10 -8 6 0 8 -3 5 -7 -4 -3 -2 -12 3 -19 6 -6 13 -22 15 -35 3
-12 9 -27 15 -33 8 -8 10 -3 6 17 -2 15 0 27 5 27 6 0 7 5 3 11 -4 8 -9 7 -15
-2 -7 -11 -9 -10 -9 3 0 9 6 19 13 22 6 3 1 3 -12 0 -13 -3 -21 -2 -18 3 3 5
2 15 -3 23 -5 9 -4 20 3 30 11 13 10 13 -5 1 -20 -15 -24 -2 -5 18 10 10 9 12
-3 9 -8 -2 -14 2 -13 7 1 6 -8 12 -19 12 -20 2 -20 1 -2 -12z"/>
<path d="M9693 10535 c0 -8 4 -12 9 -9 5 3 6 10 3 15 -9 13 -12 11 -12 -6z"/>
<path d="M9771 10303 c8 -13 17 -23 22 -23 4 0 5 5 2 10 -3 6 -1 10 4 10 6 0
11 5 11 11 0 8 -4 8 -13 0 -10 -8 -17 -7 -26 2 -10 9 -10 6 0 -10z"/>
<path d="M9800 10270 c-13 -8 -12 -10 3 -10 9 0 17 5 17 10 0 12 -1 12 -20 0z"/>
<path d="M9835 10270 c-3 -5 -1 -10 4 -10 6 0 11 5 11 10 0 6 -2 10 -4 10 -3
0 -8 -4 -11 -10z"/>
<path d="M9873 10185 c0 -8 4 -12 9 -9 5 3 6 10 3 15 -9 13 -12 11 -12 -6z"/>
<path d="M9939 10013 c0 -5 -2 -16 -4 -25 -2 -9 3 -22 10 -28 8 -6 11 -19 8
-27 -5 -13 -2 -15 11 -10 10 4 20 7 23 7 3 0 -6 9 -21 21 -25 20 -26 22 -9 35
17 13 17 14 0 8 -13 -5 -16 -2 -11 10 3 9 3 16 0 16 -3 0 -6 -3 -7 -7z"/>
<path d="M9970 9970 c0 -5 5 -10 11 -10 5 0 7 5 4 10 -3 6 -8 10 -11 10 -2 0
-4 -4 -4 -10z"/>
<path d="M9999 9867 c6 -8 7 -18 3 -22 -4 -5 -2 -5 5 -1 14 8 6 36 -9 36 -7 0
-6 -5 1 -13z"/>
<path d="M10020 9876 c0 -2 8 -10 18 -17 15 -13 16 -12 3 4 -13 16 -21 21 -21
13z"/>
<path d="M10056 9812 c-3 -5 1 -9 9 -9 8 0 12 4 9 9 -3 4 -7 8 -9 8 -2 0 -6
-4 -9 -8z"/>
<path d="M10070 9740 c0 -6 -5 -8 -12 -4 -7 4 -2 -7 11 -24 26 -38 26 -38 28
-12 1 13 -4 20 -15 20 -13 0 -14 2 -3 9 9 6 10 11 2 15 -6 4 -11 2 -11 -4z"/>
<path d="M10113 9705 c0 -8 4 -12 9 -9 5 3 6 10 3 15 -9 13 -12 11 -12 -6z"/>
<path d="M10115 9650 c-3 -5 -1 -10 4 -10 6 0 11 5 11 10 0 6 -2 10 -4 10 -3
0 -8 -4 -11 -10z"/>
<path d="M10154 9609 c-3 -6 -2 -15 4 -21 6 -6 12 -6 17 3 6 8 4 10 -5 4 -10
-6 -12 -4 -7 8 7 19 2 23 -9 6z"/>
<path d="M10136 9575 c17 -26 34 -33 34 -14 0 5 -4 8 -9 4 -5 -3 -12 4 -16 15
-3 11 -11 20 -16 20 -5 0 -2 -11 7 -25z"/>
<path d="M10220 9461 c0 -6 4 -13 10 -16 6 -3 7 1 4 9 -7 18 -14 21 -14 7z"/>
<path d="M10255 9431 c-3 -5 -2 -12 3 -15 5 -3 9 1 9 9 0 17 -3 19 -12 6z"/>
<path d="M10254 9345 c3 -22 44 -70 53 -62 4 4 -3 15 -16 23 -19 13 -20 18 -9
32 10 12 10 14 1 8 -7 -4 -13 -2 -13 3 0 6 -4 11 -9 11 -5 0 -8 -7 -7 -15z"/>
<path d="M10300 9330 c-9 -6 -10 -10 -3 -10 6 0 15 5 18 10 8 12 4 12 -15 0z"/>
<path d="M10353 9225 c0 -8 4 -12 9 -9 5 3 6 10 3 15 -9 13 -12 11 -12 -6z"/>
<path d="M10416 9097 c3 -10 9 -15 12 -12 3 3 0 11 -7 18 -10 9 -11 8 -5 -6z"/>
<path d="M10508 8893 c7 -3 16 -2 19 1 4 3 -2 6 -13 5 -11 0 -14 -3 -6 -6z"/>
<path d="M10502 8848 c6 -18 25 -21 31 -5 3 8 -3 13 -15 14 -10 1 -18 -3 -16
-9z"/>
<path d="M10546 8832 c-2 -4 4 -8 14 -8 10 0 16 4 14 8 -3 4 -9 8 -14 8 -5 0
-11 -4 -14 -8z"/>
<path d="M10630 8609 c0 -5 5 -7 10 -4 6 3 10 8 10 11 0 2 -4 4 -10 4 -5 0
-10 -5 -10 -11z"/>
<path d="M10645 8590 c-3 -6 1 -7 9 -4 18 7 21 14 7 14 -6 0 -13 -4 -16 -10z"/>
<path d="M10679 8530 c-1 -5 -2 -16 -3 -22 -4 -23 15 -38 34 -28 9 5 21 6 25
2 5 -4 5 -1 1 6 -5 9 -12 9 -27 2 -19 -11 -25 0 -20 38 1 6 -1 12 -4 12 -3 0
-6 -4 -6 -10z"/>
<path d="M10725 8443 c-15 -12 -16 -14 -3 -10 9 3 19 1 21 -6 3 -7 4 -2 4 11
-1 12 -1 22 -2 22 0 0 -9 -8 -20 -17z"/>
<path d="M10930 8009 c0 -5 5 -7 10 -4 6 3 10 8 10 11 0 2 -4 4 -10 4 -5 0
-10 -5 -10 -11z"/>
<path d="M10959 7972 c-18 -15 -20 -20 -8 -27 8 -5 11 -5 7 0 -4 4 3 16 15 26
12 10 19 18 16 19 -4 0 -17 -8 -30 -18z"/>
<path d="M10980 7890 c0 -5 5 -12 10 -15 6 -4 8 -11 5 -16 -4 -5 -1 -9 5 -9 7
0 10 7 6 15 -3 8 -1 15 4 15 19 0 10 16 -10 17 -11 1 -20 -2 -20 -7z"/>
<path d="M11059 7788 c-8 -27 -5 -36 9 -30 10 4 12 7 4 10 -7 2 -10 8 -6 13 3
5 3 9 0 9 -3 0 -6 -1 -7 -2z"/>
<path d="M11075 7711 c-2 -5 2 -14 10 -21 8 -7 15 -9 15 -5 0 4 7 1 17 -6 15
-13 15 -12 2 8 -15 25 -36 36 -44 24z"/>
<path d="M11140 7624 c0 -6 7 -19 16 -30 14 -18 14 -18 3 6 -14 31 -19 36 -19
24z"/>
<path d="M11172 7538 c-8 -8 -6 -18 9 -40 11 -15 25 -26 30 -23 15 10 10 28
-5 22 -8 -3 -17 1 -20 10 -5 11 -2 14 11 9 17 -6 17 -5 1 7 -10 8 -15 17 -11
20 3 4 4 7 2 7 -3 0 -10 -5 -17 -12z"/>
<path d="M11221 7467 c2 -1 13 -9 24 -17 19 -14 19 -14 6 3 -7 9 -18 17 -24
17 -6 0 -8 -1 -6 -3z"/>
<path d="M11218 7433 c7 -3 16 -2 19 1 4 3 -2 6 -13 5 -11 0 -14 -3 -6 -6z"/>
<path d="M11281 7326 c-8 -10 -9 -16 -1 -21 6 -3 8 -10 6 -14 -3 -4 5 -18 18
-32 21 -23 26 -31 26 -46 0 -4 5 -2 12 5 9 9 8 15 -7 26 -18 13 -18 13 1 25
13 8 14 11 4 10 -8 -1 -24 -1 -35 0 -17 1 -18 3 -5 11 10 6 11 10 3 10 -7 0
-13 6 -13 14 0 8 6 17 13 19 7 4 8 6 1 6 -6 1 -17 -5 -23 -13z"/>
<path d="M11585 6690 c-4 -6 -3 -10 2 -9 25 4 35 -1 24 -15 -8 -10 -8 -16 2
-25 18 -14 30 -2 16 16 -6 7 -8 13 -4 13 4 0 2 7 -5 15 -15 18 -26 19 -35 5z"/>
<path d="M11635 6620 c-3 -6 1 -7 9 -4 18 7 21 14 7 14 -6 0 -13 -4 -16 -10z"/>
<path d="M11667 6547 c-8 -22 6 -29 28 -13 14 10 15 15 5 21 -9 5 -11 4 -6 -3
4 -7 3 -12 -3 -12 -5 0 -11 5 -13 12 -3 8 -7 6 -11 -5z"/>
<path d="M11747 6369 c7 -7 15 -10 18 -7 3 3 -2 9 -12 12 -14 6 -15 5 -6 -5z"/>
<path d="M11830 6212 c0 -10 22 -32 32 -32 4 0 8 5 8 10 0 6 -6 9 -12 8 -7 -2
-12 3 -10 10 1 6 -2 12 -8 12 -5 0 -10 -4 -10 -8z"/>
<path d="M11855 6160 c-4 -6 1 -7 12 -3 16 6 16 5 4 -10 -8 -10 -11 -20 -7
-24 3 -3 6 -1 6 7 0 10 3 10 14 1 11 -9 16 -9 22 0 4 7 3 9 -4 5 -6 -3 -13 -2
-17 4 -3 5 0 10 7 10 9 0 9 3 -2 10 -19 12 -27 12 -35 0z"/>
<path d="M11930 5890 c0 -5 5 -10 10 -10 6 0 10 5 10 10 0 6 -4 10 -10 10 -5
0 -10 -4 -10 -10z"/>
<path d="M11855 5830 c-3 -5 -5 -10 -3 -11 33 -8 38 -7 27 7 -14 17 -16 17
-24 4z"/>
<path d="M11821 5757 c-9 -12 -8 -16 4 -20 8 -4 14 -3 14 1 -3 20 2 25 12 12
9 -12 10 -12 7 -1 -6 21 -23 24 -37 8z"/>
<path d="M11806 5721 c-8 -12 3 -41 16 -41 6 0 5 6 -2 15 -14 17 0 21 16 5 7
-7 11 -6 11 5 0 8 -3 13 -5 10 -3 -3 -11 0 -18 6 -8 6 -14 6 -18 0z"/>
<path d="M11670 5370 c0 -5 5 -10 10 -10 6 0 10 5 10 10 0 6 -4 10 -10 10 -5
0 -10 -4 -10 -10z"/>
<path d="M11563 5211 c-4 -9 -8 -20 -11 -25 -3 -5 0 -6 6 -2 7 4 12 14 12 22
0 8 4 13 9 9 5 -3 12 -2 15 3 3 5 -2 9 -10 9 -9 0 -18 -7 -21 -16z"/>
<path d="M11566 5172 c-3 -5 1 -9 9 -9 8 0 15 4 15 9 0 4 -4 8 -9 8 -6 0 -12
-4 -15 -8z"/>
<path d="M11483 4993 c-7 -2 -13 -9 -13 -15 0 -7 5 -7 13 1 8 6 18 7 22 3 5
-4 5 -1 1 6 -4 6 -8 12 -9 11 -1 0 -8 -3 -14 -6z"/>
<path d="M11409 4929 c-16 -16 -18 -23 -9 -29 9 -6 9 -9 -1 -13 -8 -3 -4 -4 8
-4 18 1 20 4 10 15 -9 11 -6 18 12 33 13 11 18 19 12 19 -6 0 -21 -10 -32 -21z"/>
<path d="M11437 4923 c-10 -9 -9 -23 1 -23 5 0 9 7 9 15 0 17 -1 18 -10 8z"/>
<path d="M11336 4683 c-6 -14 -5 -15 5 -6 7 7 10 15 7 18 -3 3 -9 -2 -12 -12z"/>
<path d="M11250 4570 c0 -5 5 -10 10 -10 6 0 10 5 10 10 0 6 -4 10 -10 10 -5
0 -10 -4 -10 -10z"/>
<path d="M11097 4287 c-3 -8 3 -14 16 -15 12 0 17 2 12 6 -6 4 -13 11 -16 15
-4 4 -9 2 -12 -6z"/>
<path d="M11050 4230 c-7 -13 -7 -21 0 -25 9 -5 14 7 11 27 -1 8 33 3 52 -8 9
-5 9 -4 1 5 -19 21 -53 21 -64 1z"/>
<path d="M11070 4211 c0 -6 4 -12 8 -15 5 -3 9 1 9 9 0 8 -4 15 -9 15 -4 0 -8
-4 -8 -9z"/>
<path d="M11054 4171 c0 -11 4 -17 8 -15 4 3 8 12 8 20 0 8 -4 14 -8 14 -4 0
-8 -9 -8 -19z"/>
<path d="M11015 4140 c-4 -6 -5 -10 -3 -11 25 -6 38 -6 38 1 0 12 -29 20 -35
10z"/>
<path d="M10939 3986 c-7 -14 -16 -26 -20 -26 -4 0 -9 -6 -12 -13 -3 -8 3 -13
18 -13 13 0 21 4 19 8 -3 4 1 8 8 8 10 0 9 3 -2 11 -11 8 -12 12 -2 16 6 2 10
9 6 14 -3 5 -1 9 5 9 5 0 12 -5 14 -10 3 -6 4 -5 3 2 -4 23 -26 19 -37 -6z"/>
<path d="M10826 3782 c-3 -6 -3 -13 2 -16 15 -9 46 0 50 15 3 11 2 12 -6 1
-11 -17 -22 -17 -32 -2 -5 8 -10 9 -14 2z"/>
<path d="M10846 3733 c-6 -14 -5 -15 5 -6 7 7 10 15 7 18 -3 3 -9 -2 -12 -12z"/>
<path d="M10770 3610 c0 -5 5 -10 10 -10 6 0 10 5 10 10 0 6 -4 10 -10 10 -5
0 -10 -4 -10 -10z"/>
<path d="M10546 3211 c-3 -5 1 -11 9 -15 8 -3 15 -1 15 4 0 13 -18 22 -24 11z"/>
<path d="M10516 3131 c-19 -7 -19 -8 2 -13 12 -4 20 -2 17 2 -3 5 1 11 7 13 7
3 9 5 3 6 -5 0 -19 -4 -29 -8z"/>
<path d="M10449 3008 c-15 -28 -19 -58 -7 -58 4 0 8 6 8 14 0 8 6 17 13 19 9
4 9 6 0 6 -7 1 -10 8 -6 17 5 13 7 13 14 2 6 -9 9 -9 9 -1 0 23 -19 23 -31 1z"/>
<path d="M10430 2920 c-9 -6 -10 -10 -3 -10 6 0 15 5 18 10 8 12 4 12 -15 0z"/>
<path d="M10267 2654 c-3 -3 -3 -13 0 -22 4 -9 2 -13 -4 -9 -12 7 -10 -29 2
-40 4 -5 5 -2 1 5 -4 6 -2 12 3 12 6 0 10 3 10 8 -3 20 2 33 11 27 6 -4 7 -11
4 -17 -4 -7 -2 -8 4 -4 9 5 8 12 -1 26 -12 21 -20 24 -30 14z"/>
<path d="M10275 2570 c-3 -5 -1 -10 4 -10 6 0 11 5 11 10 0 6 -2 10 -4 10 -3
0 -8 -4 -11 -10z"/>
<path d="M10172 2440 c-7 -11 -8 -20 -3 -20 9 0 24 30 18 36 -1 2 -8 -6 -15
-16z"/>
<path d="M10139 2283 c-13 -16 -12 -17 4 -4 9 7 17 15 17 17 0 8 -8 3 -21 -13z"/>
<path d="M10067 2196 c-4 -10 -1 -13 8 -9 8 3 12 9 9 14 -7 12 -11 11 -17 -5z"/>
<path d="M9910 1860 c0 -5 5 -10 11 -10 5 0 7 5 4 10 -3 6 -8 10 -11 10 -2 0
-4 -4 -4 -10z"/>
<path d="M9875 1810 c3 -5 8 -10 11 -10 2 0 4 5 4 10 0 6 -5 10 -11 10 -5 0
-7 -4 -4 -10z"/>
<path d="M9763 1658 c-11 -19 -12 -38 -2 -38 5 0 9 5 9 11 0 5 4 8 8 5 4 -2 9
4 9 15 2 21 -12 25 -24 7z"/>
<path d="M9570 1205 c0 -8 2 -15 4 -15 2 0 6 7 10 15 3 8 1 15 -4 15 -6 0 -10
-7 -10 -15z"/>
<path d="M9490 1179 c0 -4 4 -10 9 -14 5 -3 8 -19 6 -35 -2 -16 0 -32 5 -35 6
-4 7 1 3 11 -4 12 -3 15 5 10 7 -4 12 -3 12 3 0 5 -4 12 -9 15 -11 7 -9 32 4
43 4 4 6 3 2 -2 -3 -6 -1 -17 4 -25 7 -11 8 -8 6 10 -3 17 -11 25 -25 26 -12
1 -22 -2 -22 -7z"/>
<path d="M9553 1163 c0 -9 4 -10 14 -2 7 6 13 12 13 14 0 1 -6 2 -13 2 -8 0
-14 -6 -14 -14z"/>
<path d="M2720 899 c0 -5 -6 -7 -12 -3 -7 4 -9 3 -5 -1 13 -15 36 -14 30 1 -6
17 -13 18 -13 3z"/>
<path d="M2750 899 c0 -5 5 -7 10 -4 6 3 10 0 10 -8 0 -8 7 -18 16 -21 14 -5
15 -4 4 9 -7 8 -9 15 -4 15 11 0 -18 20 -28 20 -5 0 -8 -5 -8 -11z"/>
<path d="M4560 906 c0 -3 9 -10 19 -16 15 -7 22 -7 27 2 4 7 4 10 -1 6 -4 -4
-16 -3 -26 3 -11 5 -19 7 -19 5z"/>
<path d="M8400 906 c0 -3 9 -10 19 -16 15 -7 22 -7 27 2 4 7 4 10 -1 6 -4 -4
-16 -3 -26 3 -11 5 -19 7 -19 5z"/>
<path d="M4490 896 c0 -2 7 -7 16 -10 8 -3 12 -2 9 4 -6 10 -25 14 -25 6z"/>
<path d="M8330 896 c0 -2 7 -7 16 -10 8 -3 12 -2 9 4 -6 10 -25 14 -25 6z"/>
<path d="M9415 890 c-3 -5 -1 -10 4 -10 6 0 11 5 11 10 0 6 -2 10 -4 10 -3 0
-8 -4 -11 -10z"/>
<path d="M3220 870 c-9 -6 -10 -10 -3 -10 6 0 15 5 18 10 8 12 4 12 -15 0z"/>
<path d="M4820 870 c-9 -6 -10 -10 -3 -10 6 0 15 5 18 10 8 12 4 12 -15 0z"/>
<path d="M5300 870 c-9 -6 -10 -10 -3 -10 6 0 15 5 18 10 8 12 4 12 -15 0z"/>
<path d="M6420 870 c-9 -6 -10 -10 -3 -10 6 0 15 5 18 10 8 12 4 12 -15 0z"/>
<path d="M7060 870 c-9 -6 -10 -10 -3 -10 6 0 15 5 18 10 8 12 4 12 -15 0z"/>
<path d="M8660 870 c-9 -6 -10 -10 -3 -10 6 0 15 5 18 10 8 12 4 12 -15 0z"/>
<path d="M9140 870 c-9 -6 -10 -10 -3 -10 6 0 15 5 18 10 8 12 4 12 -15 0z"/>
<path d="M3995 850 c3 -5 8 -10 11 -10 2 0 4 5 4 10 0 6 -5 10 -11 10 -5 0 -7
-4 -4 -10z"/>
<path d="M4555 850 c3 -5 8 -10 11 -10 2 0 4 5 4 10 0 6 -5 10 -11 10 -5 0 -7
-4 -4 -10z"/>
<path d="M4727 853 c-3 -5 6 -9 20 -10 19 -1 22 1 12 8 -17 11 -26 11 -32 2z"/>
<path d="M5135 850 c-3 -6 1 -7 9 -4 18 7 21 14 7 14 -6 0 -13 -4 -16 -10z"/>
<path d="M5515 850 c3 -5 8 -10 11 -10 2 0 4 5 4 10 0 6 -5 10 -11 10 -5 0 -7
-4 -4 -10z"/>
<path d="M5687 853 c-3 -5 6 -9 20 -10 19 -1 22 1 12 8 -17 11 -26 11 -32 2z"/>
<path d="M5915 850 c3 -5 8 -10 11 -10 2 0 4 5 4 10 0 6 -5 10 -11 10 -5 0 -7
-4 -4 -10z"/>
<path d="M6375 850 c-3 -6 1 -7 9 -4 18 7 21 14 7 14 -6 0 -13 -4 -16 -10z"/>
<path d="M7835 850 c3 -5 8 -10 11 -10 2 0 4 5 4 10 0 6 -5 10 -11 10 -5 0 -7
-4 -4 -10z"/>
<path d="M8395 850 c3 -5 8 -10 11 -10 2 0 4 5 4 10 0 6 -5 10 -11 10 -5 0 -7
-4 -4 -10z"/>
<path d="M8567 853 c-3 -5 6 -9 20 -10 19 -1 22 1 12 8 -17 11 -26 11 -32 2z"/>
<path d="M8975 850 c-3 -6 1 -7 9 -4 18 7 21 14 7 14 -6 0 -13 -4 -16 -10z"/>
<path d="M9359 843 c-13 -16 -12 -17 4 -4 16 13 21 21 13 21 -2 0 -10 -8 -17
-17z"/>
</g>
</svg>
